<svg width="643" height="712" viewBox="0 0 643 712" fill="none" xmlns="http://www.w3.org/2000/svg">
<g clip-path="url(#clip0_2097_831)" filter="url(#filter0_f_2097_831)">
<path d="M550.357 638.964C509.879 657.267 461.853 640.021 442.555 600.049C423.257 560.076 441.161 514.356 481.648 496.049C522.134 477.742 570.498 495.134 589.775 535.063C609.053 574.992 590.843 620.657 550.357 638.964Z" fill="url(#paint0_linear_2097_831)"/>
<path d="M552.131 629.902C511.653 648.204 463.627 630.959 444.329 590.986C425.031 551.014 442.935 505.293 483.401 486.964C523.866 468.636 572.255 486.037 591.545 525.992C610.835 565.947 592.613 611.607 552.131 629.902Z" fill="url(#paint1_linear_2097_831)"/>
<path d="M445.188 590.572C440.758 581.576 438.189 571.777 437.636 561.763C437.083 551.749 438.557 541.725 441.97 532.29C449.106 512.604 463.974 496.835 483.802 487.839C523.772 469.792 571.689 487.08 590.682 526.42C595.086 535.365 597.637 545.109 598.183 555.066C598.729 565.024 597.258 574.99 593.858 584.369C586.681 604.128 571.692 619.999 551.739 629.023C532.453 637.728 510.537 638.581 490.644 631.402C470.75 624.223 454.445 609.577 445.188 590.572Z" fill="url(#paint2_linear_2097_831)"/>
<g filter="url(#filter1_d_2097_831)">
<path d="M587.889 579.803C591.031 571.29 592.41 562.229 591.944 553.17C591.477 544.111 589.173 535.243 585.172 527.103C567.832 491.185 523.741 475.555 486.87 492.224C468.577 500.5 454.853 514.936 448.227 532.891C445.064 541.464 443.678 550.588 444.153 559.71C444.628 568.832 446.954 577.761 450.99 585.954C459.403 603.37 474.39 616.732 492.66 623.108C511.021 629.658 531.219 628.802 548.971 620.721C567.402 612.378 581.232 597.869 587.889 579.803ZM546.47 615.186C530.169 622.606 511.623 623.394 494.761 617.381C477.997 611.527 464.245 599.264 456.524 583.282C452.843 575.819 450.718 567.685 450.28 559.374C449.842 551.063 451.098 542.749 453.974 534.936C460.03 518.549 472.596 505.345 489.367 497.75C523.238 482.466 563.717 496.794 579.639 529.774C583.278 537.181 585.374 545.251 585.8 553.493C586.226 561.736 584.973 569.981 582.117 577.728C576.046 594.24 563.384 607.554 546.47 615.186Z" fill="url(#paint3_linear_2097_831)"/>
<path d="M451.858 585.535C447.881 577.461 445.589 568.662 445.121 559.673C444.653 550.683 446.019 541.691 449.135 533.243C455.667 515.516 469.216 501.292 487.262 493.103C523.649 476.604 567.19 492.072 584.305 527.521C588.246 535.551 590.511 544.299 590.964 553.233C591.416 562.168 590.046 571.102 586.937 579.494C580.365 597.294 566.745 611.68 548.527 619.867C531.011 627.83 511.087 628.67 492.974 622.208C474.946 615.912 460.158 602.723 451.858 585.535ZM580.506 529.355C564.358 495.908 523.297 481.347 488.966 496.875C471.965 504.57 459.215 517.97 453.065 534.605C450.147 542.54 448.872 550.983 449.318 559.423C449.763 567.862 451.92 576.122 455.656 583.701C463.484 599.92 477.436 612.365 494.446 618.302C511.534 624.398 530.33 623.605 546.853 616.091C564.006 608.333 576.852 594.845 583.055 578.098C585.957 570.223 587.228 561.841 586.79 553.462C586.352 545.082 584.214 536.881 580.506 529.355Z" fill="url(#paint4_linear_2097_831)"/>
<path d="M587.646 581.715C589.533 576.607 590.79 571.289 591.39 565.878C590.728 570.632 589.554 575.301 587.889 579.803C581.232 597.869 567.402 612.378 548.971 620.721C531.219 628.802 511.021 629.658 492.66 623.108C474.39 616.732 459.403 603.37 450.99 585.954C445.359 574.428 443.098 561.546 444.469 548.788C442.64 562.15 444.829 575.752 450.756 587.862C459.167 605.284 474.153 618.654 492.425 625.037C510.789 631.576 530.983 630.721 548.737 622.65C567.156 614.281 580.985 599.751 587.646 581.715Z" fill="url(#paint5_linear_2097_831)"/>
<path d="M453.74 536.844C459.792 520.448 472.344 507.261 489.124 499.662C523.004 484.374 563.517 498.686 579.435 531.657C584.504 542.043 586.544 553.647 585.324 565.142C586.989 553.048 585.009 540.734 579.639 529.774C563.716 496.794 523.221 482.431 489.323 497.771C472.596 505.345 460.03 518.549 453.973 534.936C452.24 539.606 451.083 544.471 450.528 549.421C451.15 545.127 452.226 540.911 453.74 536.844Z" fill="url(#paint6_linear_2097_831)"/>
</g>
<g filter="url(#filter2_d_2097_831)">
<path d="M467.049 539.201C467.034 539.536 467.106 539.87 467.259 540.168L499.263 604.042C499.503 604.512 499.917 604.87 500.416 605.041C500.916 605.213 501.463 605.184 501.941 604.961L516.001 598.483C516.374 598.307 516.685 598.023 516.895 597.668C517.105 597.314 517.204 596.904 517.179 596.493L517.217 592.916C517.229 592.582 517.154 592.25 516.998 591.954L484.949 527.984C484.709 527.511 484.294 527.151 483.792 526.98C483.29 526.809 482.74 526.841 482.261 527.07L468.252 533.652C467.878 533.826 467.565 534.109 467.354 534.464C467.144 534.819 467.046 535.23 467.074 535.642L467.049 539.201Z" fill="url(#paint7_linear_2097_831)"/>
<path d="M542.986 581.074C542.998 580.739 542.926 580.407 542.775 580.107L510.526 515.946C510.287 515.473 509.872 515.112 509.369 514.942C508.867 514.771 508.318 514.803 507.839 515.031L493.778 521.638C493.405 521.814 493.093 522.098 492.883 522.453C492.673 522.808 492.574 523.217 492.6 523.628L492.562 527.205C492.549 527.539 492.625 527.871 492.78 528.168L524.88 592.241C525.12 592.709 525.531 593.067 526.029 593.239C526.527 593.411 527.071 593.384 527.55 593.164L541.748 586.619C542.122 586.446 542.435 586.165 542.646 585.811C542.857 585.457 542.956 585.048 542.93 584.638L542.986 581.074Z" fill="url(#paint8_linear_2097_831)"/>
<path d="M518.238 515.129C518.23 515.463 518.302 515.795 518.448 516.096L550.839 580.285C551.079 580.752 551.49 581.109 551.987 581.279C552.484 581.45 553.028 581.421 553.505 581.199L567.504 574.75C567.878 574.577 568.191 574.293 568.402 573.938C568.612 573.583 568.71 573.172 568.682 572.76L568.72 569.184C568.735 568.849 568.663 568.515 568.51 568.217L535.93 503.991C535.691 503.519 535.276 503.159 534.774 502.99C534.272 502.821 533.724 502.855 533.247 503.085L519.446 509.567C519.07 509.742 518.757 510.026 518.548 510.383C518.338 510.74 518.242 511.152 518.272 511.565L518.238 515.129Z" fill="url(#paint9_linear_2097_831)"/>
<path d="M516.027 594.506L501.968 600.984C501.49 601.206 500.944 601.235 500.445 601.062C499.947 600.89 499.536 600.531 499.298 600.061L467.299 536.196C467.177 535.953 467.106 535.689 467.089 535.418C467.072 535.148 467.109 534.877 467.199 534.621C467.29 534.365 467.43 534.13 467.613 533.929C467.796 533.729 468.017 533.567 468.264 533.454L482.268 526.863C482.747 526.635 483.297 526.603 483.799 526.773C484.301 526.944 484.716 527.305 484.956 527.778L517.009 591.756C517.13 592 517.201 592.266 517.216 592.538C517.232 592.81 517.193 593.082 517.101 593.339C517.01 593.595 516.867 593.831 516.683 594.031C516.498 594.232 516.275 594.393 516.027 594.506Z" fill="url(#paint10_linear_2097_831)"/>
<path d="M541.787 582.646L527.585 589.182C527.106 589.408 526.559 589.438 526.059 589.267C525.558 589.095 525.145 588.735 524.906 588.264L492.811 524.199C492.694 523.957 492.627 523.695 492.613 523.426C492.599 523.158 492.638 522.89 492.729 522.637C492.82 522.384 492.961 522.152 493.143 521.954C493.325 521.756 493.544 521.596 493.789 521.484L507.854 514.864C508.334 514.638 508.882 514.607 509.383 514.777C509.885 514.948 510.3 515.307 510.542 515.778L542.782 579.922C542.898 580.166 542.965 580.43 542.978 580.7C542.991 580.969 542.949 581.239 542.857 581.493C542.764 581.746 542.622 581.979 542.438 582.177C542.255 582.375 542.033 582.535 541.787 582.646Z" fill="url(#paint11_linear_2097_831)"/>
<path d="M567.534 570.782L553.536 577.231C553.059 577.453 552.515 577.481 552.018 577.311C551.521 577.14 551.109 576.784 550.87 576.317L518.492 512.132C518.37 511.889 518.299 511.624 518.282 511.353C518.264 511.082 518.301 510.811 518.391 510.554C518.481 510.298 518.621 510.062 518.803 509.86C518.986 509.659 519.206 509.496 519.453 509.381L533.25 502.891C533.727 502.672 534.27 502.644 534.766 502.815C535.263 502.985 535.674 503.34 535.915 503.806L568.495 568.032C568.615 568.275 568.686 568.539 568.703 568.81C568.719 569.081 568.682 569.352 568.592 569.608C568.503 569.864 568.363 570.1 568.181 570.301C568 570.503 567.78 570.666 567.534 570.782Z" fill="url(#paint12_linear_2097_831)"/>
<path d="M468.144 535.755C468.084 535.629 468.049 535.492 468.042 535.352C468.035 535.213 468.056 535.073 468.104 534.941C468.153 534.805 468.228 534.681 468.326 534.575C468.423 534.469 468.542 534.384 468.673 534.325L482.678 527.734C482.931 527.615 483.22 527.598 483.485 527.688C483.749 527.777 483.969 527.966 484.097 528.214L516.146 592.183C516.209 592.312 516.246 592.451 516.254 592.594C516.262 592.737 516.242 592.88 516.194 593.015C516.147 593.151 516.072 593.276 515.974 593.382C515.877 593.488 515.758 593.573 515.626 593.631L501.567 600.109C501.316 600.227 501.03 600.244 500.767 600.155C500.505 600.066 500.288 599.88 500.161 599.634L468.144 535.755Z" fill="url(#paint13_linear_2097_831)"/>
<path d="M493.666 523.755C493.545 523.499 493.531 523.207 493.626 522.941C493.673 522.806 493.746 522.682 493.843 522.577C493.939 522.472 494.056 522.387 494.186 522.328L508.251 515.709C508.504 515.589 508.793 515.572 509.058 515.662C509.323 515.751 509.542 515.94 509.67 516.188L541.907 580.324C541.969 580.452 542.006 580.592 542.014 580.734C542.023 580.877 542.003 581.02 541.955 581.155C541.851 581.429 541.644 581.652 541.378 581.776L527.184 588.308C526.933 588.429 526.645 588.447 526.381 588.359C526.117 588.271 525.897 588.084 525.77 587.837L493.666 523.755Z" fill="url(#paint14_linear_2097_831)"/>
<path d="M519.343 511.678C519.282 511.553 519.246 511.417 519.238 511.278C519.229 511.139 519.248 511 519.294 510.869C519.397 510.598 519.601 510.377 519.863 510.252L533.664 503.771C533.911 503.651 534.196 503.633 534.457 503.722C534.717 503.81 534.933 503.996 535.057 504.242L567.636 568.468C567.7 568.596 567.738 568.735 567.746 568.878C567.754 569.021 567.733 569.164 567.685 569.299C567.636 569.435 567.561 569.559 567.463 569.665C567.365 569.771 567.247 569.856 567.116 569.916L553.118 576.364C552.868 576.485 552.58 576.503 552.317 576.414C552.054 576.325 551.837 576.136 551.712 575.889L519.343 511.678Z" fill="url(#paint15_linear_2097_831)"/>
</g>
</g>
<g filter="url(#filter3_f_2097_831)">
<ellipse cx="484" cy="542.5" rx="59" ry="69.5" fill="#101010"/>
</g>
<path d="M547.451 408.11C522.322 533.246 401.586 616.416 275.961 594.457C150.336 572.497 73.6486 454.087 98.7828 328.924C123.917 203.761 245.562 120.047 371.051 141.983C496.54 163.919 572.586 282.947 547.451 408.11Z" fill="url(#paint16_linear_2097_831)"/>
<path d="M529.276 388.78C504.147 513.916 383.411 597.086 257.786 575.127C132.161 553.167 55.4734 434.757 80.5212 309.607C105.569 184.457 227.278 100.699 352.848 122.649C478.419 144.598 554.433 263.649 529.276 388.78Z" fill="url(#paint17_linear_2097_831)"/>
<path d="M258.257 572.428C229.838 567.69 202.667 557.262 178.371 541.769C154.075 526.275 133.153 506.035 116.856 482.258C82.8756 432.609 70.996 371.484 83.235 310.138C108.111 186.615 228.762 103.767 352.399 125.379C380.656 130.095 407.67 140.472 431.822 155.887C455.974 171.303 476.766 191.44 492.955 215.092C527.038 264.956 538.95 326.536 526.567 388.223C514.559 447.818 479.82 500.392 429.725 534.784C379.63 569.176 318.123 582.679 258.257 572.428Z" fill="url(#paint18_linear_2097_831)"/>
<g filter="url(#filter4_d_2097_831)">
<path d="M472.296 221.369C457.697 199.768 438.864 181.363 416.941 167.269C395.017 153.176 370.46 143.688 344.76 139.381C231.879 119.65 121.509 196.344 98.61 310.325C87.264 366.884 97.9514 423.108 128.746 468.662C143.45 490.411 162.42 508.939 184.503 523.12C206.587 537.3 231.322 546.836 257.206 551.148C311.948 560.705 368.249 548.127 413.747 516.177C459.809 484.306 491.663 435.737 502.556 380.767C513.978 323.772 503.298 267.183 472.296 221.369ZM485.448 377.327C475.444 427.803 446.197 472.403 403.906 501.675C362.147 530.986 310.482 542.523 260.246 533.757C236.661 529.839 214.119 521.164 193.989 508.258C173.86 495.352 156.563 478.484 143.149 458.679C115.058 417.081 105.305 365.627 115.69 313.76C136.791 209.101 238.071 138.654 341.72 156.772C365.104 160.694 387.449 169.326 407.398 182.147C427.348 194.968 444.489 211.711 457.78 231.36C486.137 273.201 495.987 325.065 485.448 377.327Z" fill="url(#paint19_linear_2097_831)"/>
<path d="M257.683 548.422C232.176 544.169 207.801 534.771 186.039 520.797C164.277 506.823 145.582 488.565 131.09 467.133C100.668 422.178 90.1834 366.72 101.319 310.883C123.802 198.318 232.874 122.632 344.283 142.107C369.626 146.368 393.838 155.743 415.445 169.661C437.053 183.579 455.607 201.75 469.978 223.07C500.504 268.239 511.248 324.137 499.818 380.372C489.045 434.593 457.612 482.495 412.175 513.935C367.266 545.454 311.705 557.857 257.683 548.422ZM342.196 154.046C237.077 135.671 134.281 207.088 112.977 313.229C102.44 365.8 112.342 418.011 140.854 460.244C154.481 480.352 172.047 497.478 192.489 510.584C212.93 523.689 235.82 532.5 259.77 536.483C310.737 545.398 363.162 533.698 405.528 503.953C448.392 474.292 478.044 429.1 488.202 377.948C498.847 324.919 488.899 272.335 460.216 229.791C446.701 209.818 429.271 192.805 408.983 179.784C388.695 166.763 365.972 158.006 342.196 154.046Z" fill="url(#paint20_linear_2097_831)"/>
<path d="M476.352 225.14C467.593 212.177 457.29 200.329 445.67 189.859C455.653 199.372 464.581 209.936 472.297 221.369C503.298 267.183 513.978 323.772 502.556 380.767C491.663 435.737 459.809 484.306 413.747 516.177C368.249 548.127 311.948 560.705 257.206 551.148C220.872 544.973 187.02 528.656 159.546 504.075C187.663 530.738 223.071 548.427 261.267 554.891C316.02 564.463 372.337 551.899 417.858 519.957C463.896 488.064 495.743 439.505 506.666 384.547C518.007 327.538 507.277 270.912 476.352 225.14Z" fill="url(#paint21_linear_2097_831)"/>
<path d="M147.209 462.422C119.091 420.82 109.356 369.425 119.746 317.531C140.852 212.844 242.151 142.289 345.772 160.402C378.504 165.982 409.004 180.668 433.785 202.782C408.351 178.626 376.298 162.608 341.72 156.772C238.072 138.654 136.683 209.081 115.667 313.896C105.305 365.627 115.058 417.081 143.149 458.679C151.142 470.553 160.555 481.405 171.178 490.995C162.199 482.348 154.164 472.77 147.209 462.422Z" fill="url(#paint22_linear_2097_831)"/>
</g>
<g filter="url(#filter5_d_2097_831)">
<path d="M175.017 435.316C175.773 435.914 176.672 436.303 177.626 436.446L380.322 468.815C381.821 469.041 383.35 468.677 384.587 467.798C385.824 466.919 386.673 465.595 386.955 464.104L395.402 420.438C395.616 419.272 395.476 418.07 395 416.985C394.525 415.9 393.735 414.983 392.733 414.353L384.45 408.27C383.69 407.681 382.789 407.301 381.836 407.167L178.841 374.745C177.336 374.511 175.799 374.876 174.558 375.762C173.318 376.647 172.473 377.983 172.203 379.484L164.083 423.207C163.861 424.373 163.997 425.578 164.474 426.665C164.95 427.751 165.745 428.667 166.752 429.292L175.017 435.316Z" fill="url(#paint23_linear_2097_831)"/>
<path d="M400.003 328.288C399.243 327.697 398.345 327.308 397.394 327.158L193.615 294.88C192.11 294.646 190.573 295.011 189.332 295.897C188.092 296.782 187.247 298.118 186.977 299.619L178.829 343.506C178.614 344.671 178.754 345.874 179.23 346.959C179.706 348.043 180.496 348.96 181.498 349.591L189.78 355.673C190.541 356.262 191.442 356.643 192.394 356.776L395.716 389.255C397.211 389.481 398.735 389.119 399.971 388.246C401.206 387.373 402.056 386.057 402.345 384.571L410.868 340.469C411.091 339.307 410.959 338.104 410.487 337.019C410.016 335.934 409.228 335.017 408.226 334.389L400.003 328.288Z" fill="url(#paint24_linear_2097_831)"/>
<path d="M204.635 275.513C205.402 276.093 206.296 276.48 207.243 276.643L411.324 308.637C412.817 308.862 414.338 308.499 415.569 307.624C416.8 306.75 417.644 305.432 417.925 303.948L426.339 260.473C426.561 259.307 426.425 258.102 425.948 257.015C425.472 255.929 424.677 255.013 423.67 254.388L415.387 248.305C414.631 247.707 413.732 247.318 412.778 247.175L208.295 215.56C206.792 215.327 205.257 215.693 204.021 216.58C202.785 217.467 201.946 218.804 201.684 220.304L193.678 263.373C193.458 264.542 193.597 265.751 194.079 266.838C194.561 267.926 195.361 268.841 196.375 269.462L204.635 275.513Z" fill="url(#paint25_linear_2097_831)"/>
<path d="M386.165 413.711L377.719 457.377C377.437 458.866 376.588 460.187 375.351 461.061C374.114 461.935 372.586 462.294 371.09 462.061L168.422 429.696C167.653 429.573 166.916 429.297 166.256 428.883C165.596 428.469 165.026 427.927 164.58 427.288C164.134 426.649 163.821 425.927 163.66 425.164C163.498 424.402 163.492 423.614 163.641 422.849L171.733 379.121C172.003 377.62 172.848 376.284 174.088 375.399C175.329 374.513 176.866 374.149 178.371 374.382L381.394 406.809C382.166 406.936 382.905 407.218 383.566 407.636C384.227 408.055 384.797 408.603 385.242 409.247C385.687 409.891 385.998 410.618 386.157 411.385C386.316 412.152 386.318 412.943 386.165 413.711Z" fill="url(#paint26_linear_2097_831)"/>
<path d="M401.664 333.719L393.113 377.817C392.838 379.312 391.991 380.64 390.752 381.52C389.513 382.4 387.981 382.762 386.48 382.528L183.185 350.054C182.425 349.921 181.699 349.638 181.049 349.221C180.4 348.804 179.84 348.262 179.402 347.625C178.965 346.989 178.658 346.272 178.501 345.516C178.344 344.76 178.338 343.979 178.486 343.221L186.612 299.302C186.888 297.805 187.735 296.473 188.973 295.589C190.212 294.705 191.746 294.337 193.25 294.564L396.974 326.832C397.737 326.969 398.465 327.257 399.116 327.679C399.767 328.101 400.327 328.648 400.764 329.29C401.2 329.931 401.505 330.653 401.659 331.414C401.814 332.174 401.815 332.958 401.664 333.719Z" fill="url(#paint27_linear_2097_831)"/>
<path d="M417.13 253.75L408.716 297.225C408.435 298.71 407.591 300.027 406.36 300.902C405.129 301.776 403.608 302.139 402.115 301.915L198.066 269.898C197.296 269.775 196.558 269.498 195.897 269.085C195.236 268.671 194.664 268.129 194.215 267.49C193.767 266.851 193.451 266.129 193.287 265.365C193.123 264.602 193.113 263.814 193.258 263.046L201.237 219.973C201.524 218.492 202.37 217.178 203.599 216.305C204.828 215.432 206.346 215.066 207.838 215.284L412.322 246.898C413.09 247.025 413.826 247.304 414.485 247.719C415.145 248.133 415.715 248.676 416.163 249.314C416.611 249.952 416.927 250.673 417.093 251.434C417.259 252.196 417.271 252.983 417.13 253.75Z" fill="url(#paint28_linear_2097_831)"/>
<path d="M168.812 426.984C168.416 426.914 168.038 426.765 167.7 426.547C167.362 426.329 167.071 426.045 166.845 425.713C166.609 425.372 166.445 424.988 166.361 424.582C166.278 424.177 166.277 423.758 166.359 423.352L174.452 379.625C174.597 378.835 175.043 378.132 175.695 377.664C176.347 377.197 177.156 377.001 177.949 377.118L380.945 409.54C381.35 409.608 381.737 409.757 382.084 409.976C382.431 410.196 382.731 410.483 382.966 410.82C383.205 411.159 383.371 411.543 383.455 411.949C383.538 412.355 383.537 412.774 383.452 413.18L375.005 456.846C374.861 457.629 374.42 458.325 373.773 458.789C373.127 459.252 372.326 459.446 371.54 459.331L168.812 426.984Z" fill="url(#paint29_linear_2097_831)"/>
<path d="M183.58 347.314C182.782 347.167 182.075 346.71 181.613 346.043C181.377 345.708 181.212 345.328 181.128 344.927C181.043 344.526 181.042 344.112 181.123 343.71L189.249 299.791C189.394 299.002 189.839 298.299 190.492 297.831C191.144 297.364 191.952 297.168 192.746 297.285L396.443 329.548C396.848 329.617 397.235 329.765 397.582 329.985C397.929 330.205 398.229 330.492 398.464 330.828C398.929 331.531 399.101 332.388 398.945 333.216L390.399 377.286C390.262 378.075 389.822 378.779 389.174 379.248C388.526 379.717 387.721 379.914 386.929 379.798L183.58 347.314Z" fill="url(#paint30_linear_2097_831)"/>
<path d="M198.434 267.154C198.04 267.086 197.663 266.942 197.324 266.728C196.986 266.515 196.693 266.237 196.462 265.91C196.003 265.215 195.829 264.37 195.977 263.55L203.982 220.481C204.118 219.702 204.554 219.008 205.196 218.547C205.839 218.087 206.635 217.897 207.416 218.019L411.899 249.633C412.305 249.699 412.694 249.846 413.041 250.066C413.389 250.286 413.688 250.575 413.921 250.914C414.155 251.255 414.319 251.639 414.402 252.045C414.486 252.45 414.487 252.868 414.406 253.274L405.993 296.749C405.856 297.535 405.416 298.236 404.768 298.701C404.12 299.165 403.315 299.357 402.528 299.234L198.434 267.154Z" fill="url(#paint31_linear_2097_831)"/>
</g>
<g filter="url(#filter6_f_2097_831)">
<ellipse cx="192" cy="183" rx="80" ry="68" fill="#101010"/>
</g>
<g clip-path="url(#clip1_2097_831)" filter="url(#filter7_f_2097_831)">
<path d="M166.062 54.2781C206.373 72.9464 224.715 120.564 207.08 161.297C189.445 202.031 143.141 218.368 102.822 199.696C62.5023 181.024 44.0499 133.055 61.666 92.3653C79.282 51.6759 125.743 35.6059 166.062 54.2781Z" fill="url(#paint32_linear_2097_831)"/>
<path d="M158.044 58.8593C198.355 77.5276 216.697 125.145 199.062 165.879C181.427 206.612 135.123 222.949 94.801 204.308C54.4789 185.666 36.0165 137.671 53.644 96.9553C71.2715 56.2394 117.737 40.1821 158.044 58.8593Z" fill="url(#paint33_linear_2097_831)"/>
<path d="M198.187 165.5C194.275 174.733 188.539 183.082 181.322 190.047C174.105 197.011 165.556 202.448 156.185 206.033C136.621 213.501 114.969 212.557 95.201 203.432C55.4157 184.981 37.1756 137.418 54.5317 97.3291C58.4229 88.1486 64.1288 79.8488 71.3076 72.9268C78.4864 66.0048 86.9905 60.6031 96.3103 57.0452C115.955 49.56 137.763 50.5298 157.635 59.7308C176.83 68.6353 191.802 84.6623 199.373 104.41C206.944 124.158 206.519 146.071 198.187 165.5Z" fill="url(#paint34_linear_2097_831)"/>
<g filter="url(#filter8_d_2097_831)">
<path d="M96.757 64.5468C88.2607 67.7337 80.5019 72.6127 73.9515 78.8878C67.401 85.163 62.1954 92.7036 58.6504 101.052C42.8043 137.653 59.7971 181.237 96.5133 198.244C114.734 206.678 134.631 207.627 152.549 200.904C161.104 197.695 168.916 192.779 175.509 186.457C182.101 180.134 187.338 172.537 190.899 164.127C198.58 146.376 198.896 126.3 191.778 108.306C184.732 90.1287 170.882 75.4031 153.162 67.2518C134.8 58.757 114.781 57.7754 96.757 64.5468ZM150.608 72.7624C166.879 80.2478 179.598 93.7687 186.07 110.46C192.599 126.973 192.308 145.396 185.261 161.686C182.019 169.35 177.252 176.275 171.249 182.039C165.246 187.804 158.133 192.288 150.34 195.219C133.98 201.348 115.774 200.47 99.0631 192.742C65.3556 177.1 49.7392 137.101 64.2893 103.493C67.5158 95.8975 72.2523 89.0363 78.2118 83.3257C84.1713 77.6151 91.2298 73.1739 98.9595 70.2712C115.423 64.0723 133.777 64.951 150.608 72.7624Z" fill="url(#paint35_linear_2097_831)"/>
<path d="M190.016 163.745C186.505 172.032 181.344 179.518 174.847 185.748C168.35 191.979 160.653 196.823 152.222 199.987C134.537 206.632 114.915 205.676 96.9221 197.372C60.6514 180.621 43.8946 137.559 59.5342 101.435C63.0348 93.2036 68.174 85.7708 74.6395 79.5881C81.105 73.4055 88.7618 68.602 97.1446 65.4696C114.911 58.8071 134.702 59.7106 152.806 68.1463C170.282 76.1961 183.941 90.7251 190.892 108.657C197.912 126.416 197.597 146.228 190.016 163.745ZM63.4055 103.111C48.649 137.195 64.4707 177.787 98.6632 193.617C115.6 201.453 134.074 202.343 150.684 196.123C158.596 193.144 165.819 188.59 171.915 182.736C178.01 176.882 182.851 169.851 186.144 162.069C193.301 145.543 193.599 126.85 186.973 110.095C180.416 93.1792 167.529 79.4735 151.042 71.8809C133.959 63.9712 115.355 63.0674 98.6263 69.3196C90.769 72.2712 83.5952 76.7887 77.5405 82.5976C71.4859 88.4064 66.6768 95.3854 63.4055 103.111Z" fill="url(#paint36_linear_2097_831)"/>
<path d="M98.3625 63.4804C93.2639 65.392 88.4174 67.9168 83.9301 70.9992C87.9604 68.393 92.261 66.2297 96.7569 64.5468C114.78 57.7754 134.8 58.7569 153.162 67.2518C170.881 75.4031 184.732 90.1287 191.778 108.306C198.896 126.3 198.58 146.376 190.899 164.127C185.858 175.923 177.587 186.055 167.036 193.357C178.344 186.006 187.206 175.459 192.496 163.057C200.183 145.304 200.505 125.223 193.391 107.222C186.336 89.0507 172.488 74.3282 154.775 66.1677C136.402 57.6994 116.366 56.7317 98.3625 63.4804Z" fill="url(#paint37_linear_2097_831)"/>
<path d="M151.937 194.149C135.573 200.286 117.388 199.407 100.669 191.676C66.9525 176.03 51.3008 136.015 65.847 102.417C70.394 91.7917 77.8417 82.662 87.3388 76.0712C77.0976 82.7174 69.0729 92.2644 64.2894 103.493C49.7393 137.101 65.3404 177.135 99.1074 192.761C115.774 200.469 133.98 201.348 150.34 195.219C155.008 193.478 159.446 191.174 163.554 188.358C159.898 190.694 156.004 192.635 151.937 194.149Z" fill="url(#paint38_linear_2097_831)"/>
</g>
<g filter="url(#filter9_d_2097_831)">
<path d="M145.021 182.536C145.285 182.328 145.49 182.056 145.616 181.745L173.034 115.772C173.232 115.283 173.233 114.736 173.036 114.246C172.839 113.756 172.46 113.361 171.978 113.145L157.885 106.74C157.509 106.572 157.09 106.522 156.684 106.595C156.279 106.668 155.904 106.861 155.609 107.149L152.878 109.458C152.617 109.667 152.415 109.941 152.292 110.253L124.832 176.322C124.631 176.813 124.63 177.362 124.828 177.854C125.027 178.346 125.411 178.74 125.897 178.954L140.035 185.253C140.412 185.423 140.831 185.475 141.237 185.402C141.644 185.329 142.018 185.134 142.312 184.844L145.021 182.536Z" fill="url(#paint39_linear_2097_831)"/>
<path d="M127.071 97.6981C126.81 97.9073 126.605 98.1795 126.477 98.4892L99.0022 164.835C98.8008 165.326 98.7994 165.876 98.9984 166.367C99.1973 166.859 99.5808 167.254 100.067 167.467L114.258 173.789C114.635 173.956 115.054 174.007 115.459 173.934C115.865 173.861 116.24 173.668 116.534 173.38L119.266 171.071C119.527 170.861 119.729 170.587 119.851 170.276L147.357 104.1C147.555 103.613 147.556 103.068 147.361 102.579C147.166 102.09 146.79 101.695 146.31 101.477L132.076 95.0102C131.701 94.84 131.284 94.7872 130.878 94.8587C130.472 94.9301 130.098 95.1225 129.804 95.4105L127.071 97.6981Z" fill="url(#paint40_linear_2097_831)"/>
<path d="M93.3426 159.533C93.6011 159.32 93.8049 159.049 93.9371 158.742L121.34 92.2703C121.538 91.7835 121.538 91.2391 121.342 90.7515C121.146 90.2639 120.769 89.871 120.289 89.6554L106.259 83.2769C105.882 83.107 105.463 83.0552 105.057 83.1282C104.651 83.2013 104.276 83.3958 103.983 83.686L101.251 85.9951C100.988 86.2025 100.783 86.4752 100.657 86.7863L73.3491 153.425C73.1481 153.915 73.1475 154.464 73.3473 154.954C73.5471 155.445 73.9315 155.837 74.4177 156.048L88.344 162.255C88.7217 162.425 89.1421 162.476 89.5493 162.401C89.9565 162.326 90.3313 162.13 90.6239 161.837L93.3426 159.533Z" fill="url(#paint41_linear_2097_831)"/>
<path d="M154.858 109.319L168.951 115.724C169.432 115.941 169.81 116.335 170.005 116.825C170.201 117.314 170.198 117.861 169.998 118.348L142.584 184.312C142.48 184.562 142.326 184.789 142.133 184.978C141.939 185.168 141.709 185.317 141.457 185.416C141.204 185.515 140.934 185.562 140.663 185.555C140.392 185.548 140.125 185.486 139.878 185.373L125.736 179.083C125.25 178.87 124.866 178.475 124.667 177.984C124.468 177.492 124.47 176.942 124.671 176.452L152.135 110.373C152.241 110.122 152.396 109.895 152.591 109.706C152.787 109.516 153.019 109.367 153.273 109.269C153.527 109.171 153.798 109.124 154.071 109.133C154.343 109.142 154.611 109.205 154.858 109.319Z" fill="url(#paint42_linear_2097_831)"/>
<path d="M129.045 97.5769L143.275 104.052C143.758 104.267 144.139 104.662 144.336 105.152C144.533 105.643 144.531 106.191 144.331 106.68L116.828 172.846C116.722 173.093 116.567 173.316 116.373 173.502C116.179 173.688 115.95 173.833 115.699 173.929C115.448 174.026 115.181 174.071 114.912 174.063C114.643 174.055 114.379 173.993 114.134 173.882L99.9301 167.565C99.4457 167.35 99.0638 166.955 98.8651 166.464C98.6664 165.973 98.6665 165.424 98.8654 164.933L126.333 98.6047C126.441 98.3575 126.598 98.1344 126.793 97.9484C126.989 97.7625 127.22 97.6174 127.472 97.5217C127.725 97.426 127.994 97.3816 128.264 97.3911C128.534 97.4005 128.799 97.4637 129.045 97.5769Z" fill="url(#paint43_linear_2097_831)"/>
<path d="M103.236 85.8476L117.266 92.2261C117.746 92.4417 118.123 92.8346 118.319 93.3222C118.515 93.8098 118.514 94.3542 118.317 94.8411L90.9089 161.3C90.8046 161.551 90.6511 161.778 90.4573 161.968C90.2636 162.158 90.0336 162.308 89.781 162.408C89.5283 162.507 89.2582 162.556 88.9865 162.549C88.7149 162.543 88.4472 162.482 88.1994 162.371L74.2693 156.172C73.7914 155.955 73.4156 155.562 73.2199 155.075C73.0242 154.588 73.0236 154.044 73.2184 153.557L100.526 86.9184C100.632 86.6686 100.786 86.4423 100.98 86.2528C101.174 86.0632 101.403 85.9142 101.656 85.8145C101.908 85.7148 102.178 85.6664 102.449 85.6721C102.72 85.6778 102.988 85.7375 103.236 85.8476Z" fill="url(#paint44_linear_2097_831)"/>
<path d="M141.697 183.959C141.642 184.087 141.561 184.203 141.459 184.3C141.358 184.396 141.239 184.472 141.108 184.521C140.973 184.574 140.83 184.598 140.686 184.593C140.542 184.589 140.4 184.555 140.269 184.494L126.127 178.204C125.872 178.09 125.67 177.882 125.565 177.624C125.459 177.365 125.459 177.076 125.563 176.816L153.023 110.747C153.079 110.615 153.161 110.496 153.263 110.397C153.366 110.297 153.487 110.219 153.62 110.167C153.754 110.114 153.898 110.088 154.042 110.093C154.187 110.098 154.328 110.132 154.459 110.194L168.551 116.599C168.804 116.712 169.004 116.918 169.108 117.174C169.213 117.43 169.214 117.717 169.11 117.974L141.697 183.959Z" fill="url(#paint45_linear_2097_831)"/>
<path d="M115.933 172.49C115.819 172.748 115.607 172.95 115.343 173.052C115.211 173.105 115.069 173.13 114.926 173.126C114.784 173.122 114.643 173.089 114.514 173.029L100.31 166.712C100.054 166.598 99.8526 166.391 99.7473 166.132C99.642 165.873 99.6413 165.584 99.7454 165.324L127.209 99.0048C127.265 98.8733 127.347 98.7543 127.449 98.6547C127.552 98.5551 127.673 98.4769 127.806 98.4247C128.082 98.3245 128.386 98.3357 128.653 98.4559L142.875 104.927C143.13 105.038 143.333 105.244 143.439 105.501C143.545 105.759 143.547 106.047 143.443 106.306L115.933 172.49Z" fill="url(#paint46_linear_2097_831)"/>
<path d="M90.0097 160.953C89.9549 161.081 89.8753 161.196 89.7756 161.294C89.6759 161.391 89.558 161.467 89.4287 161.519C89.1562 161.618 88.856 161.608 88.5904 161.492L74.6641 155.284C74.4117 155.175 74.2121 154.971 74.1084 154.716C74.0048 154.461 74.0053 154.176 74.1098 153.922L101.418 87.2835C101.473 87.1514 101.554 87.0319 101.657 86.9322C101.759 86.8325 101.881 86.7546 102.015 86.7033C102.149 86.6517 102.293 86.6276 102.437 86.6323C102.581 86.637 102.722 86.6704 102.853 86.7307L116.884 93.1092C117.139 93.2195 117.34 93.4253 117.445 93.6824C117.549 93.9395 117.549 94.2272 117.443 94.4838L90.0097 160.953Z" fill="url(#paint47_linear_2097_831)"/>
</g>
</g>
<defs>
<filter id="filter0_f_2097_831" x="388.004" y="436.923" width="257.996" height="251.996" filterUnits="userSpaceOnUse" color-interpolation-filters="sRGB">
<feFlood flood-opacity="0" result="BackgroundImageFix"/>
<feBlend mode="normal" in="SourceGraphic" in2="BackgroundImageFix" result="shape"/>
<feGaussianBlur stdDeviation="3" result="effect1_foregroundBlur_2097_831"/>
</filter>
<filter id="filter1_d_2097_831" x="439.841" y="480.549" width="164.191" height="159.84" filterUnits="userSpaceOnUse" color-interpolation-filters="sRGB">
<feFlood flood-opacity="0" result="BackgroundImageFix"/>
<feColorMatrix in="SourceAlpha" type="matrix" values="0 0 0 0 0 0 0 0 0 0 0 0 0 0 0 0 0 0 127 0" result="hardAlpha"/>
<feOffset dx="4" dy="3"/>
<feGaussianBlur stdDeviation="4"/>
<feColorMatrix type="matrix" values="0 0 0 0 0.188235 0 0 0 0 0.188235 0 0 0 0 0.188235 0 0 0 1 0"/>
<feBlend mode="normal" in2="BackgroundImageFix" result="effect1_dropShadow_2097_831"/>
<feBlend mode="normal" in="SourceGraphic" in2="effect1_dropShadow_2097_831" result="shape"/>
</filter>
<filter id="filter2_d_2097_831" x="463.047" y="497.704" width="117.674" height="118.447" filterUnits="userSpaceOnUse" color-interpolation-filters="sRGB">
<feFlood flood-opacity="0" result="BackgroundImageFix"/>
<feColorMatrix in="SourceAlpha" type="matrix" values="0 0 0 0 0 0 0 0 0 0 0 0 0 0 0 0 0 0 127 0" result="hardAlpha"/>
<feOffset dx="4" dy="3"/>
<feGaussianBlur stdDeviation="4"/>
<feColorMatrix type="matrix" values="0 0 0 0 0.188235 0 0 0 0 0.188235 0 0 0 0 0.188235 0 0 0 1 0"/>
<feBlend mode="normal" in2="BackgroundImageFix" result="effect1_dropShadow_2097_831"/>
<feBlend mode="normal" in="SourceGraphic" in2="effect1_dropShadow_2097_831" result="shape"/>
</filter>
<filter id="filter3_f_2097_831" x="325" y="373" width="318" height="339" filterUnits="userSpaceOnUse" color-interpolation-filters="sRGB">
<feFlood flood-opacity="0" result="BackgroundImageFix"/>
<feBlend mode="normal" in="SourceGraphic" in2="BackgroundImageFix" result="shape"/>
<feGaussianBlur stdDeviation="50" result="effect1_foregroundBlur_2097_831"/>
</filter>
<filter id="filter4_d_2097_831" x="90.1946" y="131.287" width="432.874" height="437.738" filterUnits="userSpaceOnUse" color-interpolation-filters="sRGB">
<feFlood flood-opacity="0" result="BackgroundImageFix"/>
<feColorMatrix in="SourceAlpha" type="matrix" values="0 0 0 0 0 0 0 0 0 0 0 0 0 0 0 0 0 0 127 0" result="hardAlpha"/>
<feOffset dx="4" dy="3"/>
<feGaussianBlur stdDeviation="4"/>
<feColorMatrix type="matrix" values="0 0 0 0 0.188235 0 0 0 0 0.188235 0 0 0 0 0.188235 0 0 0 1 0"/>
<feBlend mode="normal" in2="BackgroundImageFix" result="effect1_dropShadow_2097_831"/>
<feBlend mode="normal" in="SourceGraphic" in2="effect1_dropShadow_2097_831" result="shape"/>
</filter>
<filter id="filter5_d_2097_831" x="159.534" y="210.222" width="278.909" height="269.659" filterUnits="userSpaceOnUse" color-interpolation-filters="sRGB">
<feFlood flood-opacity="0" result="BackgroundImageFix"/>
<feColorMatrix in="SourceAlpha" type="matrix" values="0 0 0 0 0 0 0 0 0 0 0 0 0 0 0 0 0 0 127 0" result="hardAlpha"/>
<feOffset dx="4" dy="3"/>
<feGaussianBlur stdDeviation="4"/>
<feColorMatrix type="matrix" values="0 0 0 0 0.188235 0 0 0 0 0.188235 0 0 0 0 0.188235 0 0 0 1 0"/>
<feBlend mode="normal" in2="BackgroundImageFix" result="effect1_dropShadow_2097_831"/>
<feBlend mode="normal" in="SourceGraphic" in2="effect1_dropShadow_2097_831" result="shape"/>
</filter>
<filter id="filter6_f_2097_831" x="12" y="15" width="360" height="336" filterUnits="userSpaceOnUse" color-interpolation-filters="sRGB">
<feFlood flood-opacity="0" result="BackgroundImageFix"/>
<feBlend mode="normal" in="SourceGraphic" in2="BackgroundImageFix" result="shape"/>
<feGaussianBlur stdDeviation="50" result="effect1_foregroundBlur_2097_831"/>
</filter>
<filter id="filter7_f_2097_831" x="-5.63306" y="-5.54492" width="271.902" height="269.545" filterUnits="userSpaceOnUse" color-interpolation-filters="sRGB">
<feFlood flood-opacity="0" result="BackgroundImageFix"/>
<feBlend mode="normal" in="SourceGraphic" in2="BackgroundImageFix" result="shape"/>
<feGaussianBlur stdDeviation="3" result="effect1_foregroundBlur_2097_831"/>
</filter>
<filter id="filter8_d_2097_831" x="48.7166" y="54.0356" width="161.786" height="162.303" filterUnits="userSpaceOnUse" color-interpolation-filters="sRGB">
<feFlood flood-opacity="0" result="BackgroundImageFix"/>
<feColorMatrix in="SourceAlpha" type="matrix" values="0 0 0 0 0 0 0 0 0 0 0 0 0 0 0 0 0 0 127 0" result="hardAlpha"/>
<feOffset dx="4" dy="3"/>
<feGaussianBlur stdDeviation="4"/>
<feColorMatrix type="matrix" values="0 0 0 0 0.188235 0 0 0 0 0.188235 0 0 0 0 0.188235 0 0 0 1 0"/>
<feBlend mode="normal" in2="BackgroundImageFix" result="effect1_dropShadow_2097_831"/>
<feBlend mode="normal" in="SourceGraphic" in2="effect1_dropShadow_2097_831" result="shape"/>
</filter>
<filter id="filter9_d_2097_831" x="69.0728" y="78.0962" width="116.11" height="118.459" filterUnits="userSpaceOnUse" color-interpolation-filters="sRGB">
<feFlood flood-opacity="0" result="BackgroundImageFix"/>
<feColorMatrix in="SourceAlpha" type="matrix" values="0 0 0 0 0 0 0 0 0 0 0 0 0 0 0 0 0 0 127 0" result="hardAlpha"/>
<feOffset dx="4" dy="3"/>
<feGaussianBlur stdDeviation="4"/>
<feColorMatrix type="matrix" values="0 0 0 0 0.188235 0 0 0 0 0.188235 0 0 0 0 0.188235 0 0 0 1 0"/>
<feBlend mode="normal" in2="BackgroundImageFix" result="effect1_dropShadow_2097_831"/>
<feBlend mode="normal" in="SourceGraphic" in2="effect1_dropShadow_2097_831" result="shape"/>
</filter>
<linearGradient id="paint0_linear_2097_831" x1="439.35" y1="579.254" x2="593.258" y2="555.757" gradientUnits="userSpaceOnUse">
<stop stop-color="#666666"/>
<stop offset="0.5" stop-color="#1A1A1A"/>
<stop offset="1" stop-color="#666666"/>
</linearGradient>
<linearGradient id="paint1_linear_2097_831" x1="590.064" y1="523.544" x2="447.137" y2="592.548" gradientUnits="userSpaceOnUse">
<stop stop-color="#1A1A1A"/>
<stop offset="0.5" stop-color="#333333"/>
<stop offset="1" stop-color="#4D4D4D"/>
</linearGradient>
<linearGradient id="paint2_linear_2097_831" x1="483.819" y1="487.831" x2="551.951" y2="628.952" gradientUnits="userSpaceOnUse">
<stop stop-color="#4D4D4D"/>
<stop offset="0.5" stop-color="#333333"/>
<stop offset="1" stop-color="#1A1A1A"/>
</linearGradient>
<linearGradient id="paint3_linear_2097_831" x1="453.41" y1="523.711" x2="580.149" y2="588.242" gradientUnits="userSpaceOnUse">
<stop stop-color="#14F195"/>
<stop offset="1" stop-color="#9945FF"/>
</linearGradient>
<linearGradient id="paint4_linear_2097_831" x1="454.261" y1="524.144" x2="579.342" y2="587.829" gradientUnits="userSpaceOnUse">
<stop stop-color="#9945FF"/>
<stop offset="1" stop-color="#14F195"/>
</linearGradient>
<linearGradient id="paint5_linear_2097_831" x1="495.59" y1="524.086" x2="544.227" y2="624.828" gradientUnits="userSpaceOnUse">
<stop stop-color="#1A1A1A"/>
<stop offset="0.5" stop-color="#333333"/>
<stop offset="1" stop-color="#4D4D4D"/>
</linearGradient>
<linearGradient id="paint6_linear_2097_831" x1="493.834" y1="495.572" x2="538.383" y2="587.848" gradientUnits="userSpaceOnUse">
<stop stop-color="#1A1A1A"/>
<stop offset="0.5" stop-color="#333333"/>
<stop offset="1" stop-color="#4D4D4D"/>
</linearGradient>
<linearGradient id="paint7_linear_2097_831" x1="474.927" y1="530.419" x2="509.327" y2="601.673" gradientUnits="userSpaceOnUse">
<stop stop-color="#1A1A1A"/>
<stop offset="0.5" stop-color="#333333"/>
<stop offset="1" stop-color="#4D4D4D"/>
</linearGradient>
<linearGradient id="paint8_linear_2097_831" x1="500.517" y1="518.385" x2="535.014" y2="589.838" gradientUnits="userSpaceOnUse">
<stop stop-color="#1A1A1A"/>
<stop offset="0.5" stop-color="#333333"/>
<stop offset="1" stop-color="#4D4D4D"/>
</linearGradient>
<linearGradient id="paint9_linear_2097_831" x1="526.176" y1="506.317" x2="560.773" y2="577.978" gradientUnits="userSpaceOnUse">
<stop stop-color="#1A1A1A"/>
<stop offset="0.5" stop-color="#333333"/>
<stop offset="1" stop-color="#4D4D4D"/>
</linearGradient>
<linearGradient id="paint10_linear_2097_831" x1="445.137" y1="540.046" x2="571.581" y2="604.431" gradientUnits="userSpaceOnUse">
<stop stop-color="#14F195"/>
<stop offset="1" stop-color="#9945FF"/>
</linearGradient>
<linearGradient id="paint11_linear_2097_831" x1="455.345" y1="520.319" x2="581.79" y2="584.704" gradientUnits="userSpaceOnUse">
<stop stop-color="#14F195"/>
<stop offset="1" stop-color="#9945FF"/>
</linearGradient>
<linearGradient id="paint12_linear_2097_831" x1="465.584" y1="500.524" x2="592.042" y2="564.913" gradientUnits="userSpaceOnUse">
<stop stop-color="#14F195"/>
<stop offset="1" stop-color="#9945FF"/>
</linearGradient>
<linearGradient id="paint13_linear_2097_831" x1="446.411" y1="540.692" x2="569.432" y2="603.34" gradientUnits="userSpaceOnUse">
<stop stop-color="#9945FF"/>
<stop offset="1" stop-color="#14F195"/>
</linearGradient>
<linearGradient id="paint14_linear_2097_831" x1="457.03" y1="521.173" x2="580.064" y2="583.825" gradientUnits="userSpaceOnUse">
<stop stop-color="#9945FF"/>
<stop offset="1" stop-color="#14F195"/>
</linearGradient>
<linearGradient id="paint15_linear_2097_831" x1="467.684" y1="501.594" x2="590.726" y2="564.242" gradientUnits="userSpaceOnUse">
<stop stop-color="#9945FF"/>
<stop offset="1" stop-color="#14F195"/>
</linearGradient>
<linearGradient id="paint16_linear_2097_831" x1="222.062" y1="567.085" x2="425.18" y2="168.538" gradientUnits="userSpaceOnUse">
<stop stop-color="#666666"/>
<stop offset="0.5" stop-color="#1A1A1A"/>
<stop offset="1" stop-color="#666666"/>
</linearGradient>
<linearGradient id="paint17_linear_2097_831" x1="344.654" y1="122.003" x2="266.135" y2="571.193" gradientUnits="userSpaceOnUse">
<stop stop-color="#1A1A1A"/>
<stop offset="0.5" stop-color="#333333"/>
<stop offset="1" stop-color="#4D4D4D"/>
</linearGradient>
<linearGradient id="paint18_linear_2097_831" x1="83.2445" y1="310.083" x2="526.759" y2="387.61" gradientUnits="userSpaceOnUse">
<stop stop-color="#4D4D4D"/>
<stop offset="0.5" stop-color="#333333"/>
<stop offset="1" stop-color="#1A1A1A"/>
</linearGradient>
<linearGradient id="paint19_linear_2097_831" x1="116.009" y1="441.181" x2="479.018" y2="253.573" gradientUnits="userSpaceOnUse">
<stop stop-color="#14F195"/>
<stop offset="1" stop-color="#9945FF"/>
</linearGradient>
<linearGradient id="paint20_linear_2097_831" x1="118.447" y1="439.922" x2="476.701" y2="254.765" gradientUnits="userSpaceOnUse">
<stop stop-color="#9945FF"/>
<stop offset="1" stop-color="#14F195"/>
</linearGradient>
<linearGradient id="paint21_linear_2097_831" x1="187.58" y1="343.378" x2="504.189" y2="398.721" gradientUnits="userSpaceOnUse">
<stop stop-color="#1A1A1A"/>
<stop offset="0.5" stop-color="#333333"/>
<stop offset="1" stop-color="#4D4D4D"/>
</linearGradient>
<linearGradient id="paint22_linear_2097_831" x1="118.095" y1="299.685" x2="408.097" y2="350.378" gradientUnits="userSpaceOnUse">
<stop stop-color="#1A1A1A"/>
<stop offset="0.5" stop-color="#333333"/>
<stop offset="1" stop-color="#4D4D4D"/>
</linearGradient>
<linearGradient id="paint23_linear_2097_831" x1="167.725" y1="402.214" x2="391.66" y2="441.358" gradientUnits="userSpaceOnUse">
<stop stop-color="#1A1A1A"/>
<stop offset="0.5" stop-color="#333333"/>
<stop offset="1" stop-color="#4D4D4D"/>
</linearGradient>
<linearGradient id="paint24_linear_2097_831" x1="182.531" y1="322.326" x2="407.093" y2="361.58" gradientUnits="userSpaceOnUse">
<stop stop-color="#1A1A1A"/>
<stop offset="0.5" stop-color="#333333"/>
<stop offset="1" stop-color="#4D4D4D"/>
</linearGradient>
<linearGradient id="paint25_linear_2097_831" x1="197.376" y1="242.22" x2="422.592" y2="281.588" gradientUnits="userSpaceOnUse">
<stop stop-color="#1A1A1A"/>
<stop offset="0.5" stop-color="#333333"/>
<stop offset="1" stop-color="#4D4D4D"/>
</linearGradient>
<linearGradient id="paint26_linear_2097_831" x1="140.264" y1="487.867" x2="502.436" y2="300.702" gradientUnits="userSpaceOnUse">
<stop stop-color="#14F195"/>
<stop offset="1" stop-color="#9945FF"/>
</linearGradient>
<linearGradient id="paint27_linear_2097_831" x1="111.337" y1="430.983" x2="473.51" y2="243.818" gradientUnits="userSpaceOnUse">
<stop stop-color="#14F195"/>
<stop offset="1" stop-color="#9945FF"/>
</linearGradient>
<linearGradient id="paint28_linear_2097_831" x1="82.3032" y1="373.91" x2="444.508" y2="186.723" gradientUnits="userSpaceOnUse">
<stop stop-color="#14F195"/>
<stop offset="1" stop-color="#9945FF"/>
</linearGradient>
<linearGradient id="paint29_linear_2097_831" x1="143.906" y1="485.976" x2="496.288" y2="303.889" gradientUnits="userSpaceOnUse">
<stop stop-color="#9945FF"/>
<stop offset="1" stop-color="#14F195"/>
</linearGradient>
<linearGradient id="paint30_linear_2097_831" x1="116.152" y1="428.481" x2="468.567" y2="246.373" gradientUnits="userSpaceOnUse">
<stop stop-color="#9945FF"/>
<stop offset="1" stop-color="#14F195"/>
</linearGradient>
<linearGradient id="paint31_linear_2097_831" x1="88.3188" y1="370.804" x2="440.738" y2="188.668" gradientUnits="userSpaceOnUse">
<stop stop-color="#9945FF"/>
<stop offset="1" stop-color="#14F195"/>
</linearGradient>
<linearGradient id="paint32_linear_2097_831" x1="193.439" y1="177.316" x2="75.0498" y2="76.2022" gradientUnits="userSpaceOnUse">
<stop stop-color="#666666"/>
<stop offset="0.5" stop-color="#1A1A1A"/>
<stop offset="1" stop-color="#666666"/>
</linearGradient>
<linearGradient id="paint33_linear_2097_831" x1="52.7599" y1="99.6762" x2="198.409" y2="162.733" gradientUnits="userSpaceOnUse">
<stop stop-color="#1A1A1A"/>
<stop offset="0.5" stop-color="#333333"/>
<stop offset="1" stop-color="#4D4D4D"/>
</linearGradient>
<linearGradient id="paint34_linear_2097_831" x1="95.1833" y1="203.424" x2="157.444" y2="59.6163" gradientUnits="userSpaceOnUse">
<stop stop-color="#4D4D4D"/>
<stop offset="0.5" stop-color="#333333"/>
<stop offset="1" stop-color="#1A1A1A"/>
</linearGradient>
<linearGradient id="paint35_linear_2097_831" x1="142.214" y1="202.983" x2="108.202" y2="64.8877" gradientUnits="userSpaceOnUse">
<stop stop-color="#14F195"/>
<stop offset="1" stop-color="#9945FF"/>
</linearGradient>
<linearGradient id="paint36_linear_2097_831" x1="141.986" y1="202.056" x2="108.418" y2="65.7685" gradientUnits="userSpaceOnUse">
<stop stop-color="#9945FF"/>
<stop offset="1" stop-color="#14F195"/>
</linearGradient>
<linearGradient id="paint37_linear_2097_831" x1="114.926" y1="170.817" x2="159.371" y2="68.1575" gradientUnits="userSpaceOnUse">
<stop stop-color="#1A1A1A"/>
<stop offset="0.5" stop-color="#333333"/>
<stop offset="1" stop-color="#4D4D4D"/>
</linearGradient>
<linearGradient id="paint38_linear_2097_831" x1="94.495" y1="190.785" x2="135.205" y2="96.7526" gradientUnits="userSpaceOnUse">
<stop stop-color="#1A1A1A"/>
<stop offset="0.5" stop-color="#333333"/>
<stop offset="1" stop-color="#4D4D4D"/>
</linearGradient>
<linearGradient id="paint39_linear_2097_831" x1="133.226" y1="182.315" x2="164.662" y2="109.705" gradientUnits="userSpaceOnUse">
<stop stop-color="#1A1A1A"/>
<stop offset="0.5" stop-color="#333333"/>
<stop offset="1" stop-color="#4D4D4D"/>
</linearGradient>
<linearGradient id="paint40_linear_2097_831" x1="107.391" y1="170.816" x2="138.915" y2="98.0022" gradientUnits="userSpaceOnUse">
<stop stop-color="#1A1A1A"/>
<stop offset="0.5" stop-color="#333333"/>
<stop offset="1" stop-color="#4D4D4D"/>
</linearGradient>
<linearGradient id="paint41_linear_2097_831" x1="81.4853" y1="159.286" x2="113.101" y2="86.2601" gradientUnits="userSpaceOnUse">
<stop stop-color="#1A1A1A"/>
<stop offset="0.5" stop-color="#333333"/>
<stop offset="1" stop-color="#4D4D4D"/>
</linearGradient>
<linearGradient id="paint42_linear_2097_831" x1="159.984" y1="198.566" x2="126.055" y2="60.7894" gradientUnits="userSpaceOnUse">
<stop stop-color="#14F195"/>
<stop offset="1" stop-color="#9945FF"/>
</linearGradient>
<linearGradient id="paint43_linear_2097_831" x1="138.383" y1="203.736" x2="104.453" y2="65.9592" gradientUnits="userSpaceOnUse">
<stop stop-color="#14F195"/>
<stop offset="1" stop-color="#9945FF"/>
</linearGradient>
<linearGradient id="paint44_linear_2097_831" x1="116.709" y1="208.927" x2="82.7743" y2="71.1378" gradientUnits="userSpaceOnUse">
<stop stop-color="#14F195"/>
<stop offset="1" stop-color="#9945FF"/>
</linearGradient>
<linearGradient id="paint45_linear_2097_831" x1="159.64" y1="197.179" x2="126.634" y2="63.1289" gradientUnits="userSpaceOnUse">
<stop stop-color="#9945FF"/>
<stop offset="1" stop-color="#14F195"/>
</linearGradient>
<linearGradient id="paint46_linear_2097_831" x1="137.927" y1="201.903" x2="104.916" y2="67.8395" gradientUnits="userSpaceOnUse">
<stop stop-color="#9945FF"/>
<stop offset="1" stop-color="#14F195"/>
</linearGradient>
<linearGradient id="paint47_linear_2097_831" x1="116.146" y1="206.639" x2="83.1264" y2="72.5718" gradientUnits="userSpaceOnUse">
<stop stop-color="#9945FF"/>
<stop offset="1" stop-color="#14F195"/>
</linearGradient>
<clipPath id="clip0_2097_831">
<rect width="175.535" height="188.418" fill="white" transform="translate(563.683 442.923) rotate(64.2293)"/>
</clipPath>
<clipPath id="clip1_2097_831">
<rect width="194.484" height="199.014" fill="white" transform="translate(0.366943 178.931) rotate(-66.5903)"/>
</clipPath>
</defs>

</svg>
