<svg width="26" height="27" viewBox="0 0 26 27" fill="none" xmlns="http://www.w3.org/2000/svg">
<g clip-path="url(#clip0_2038_1895)">
<path d="M8.66699 6.67285C10.3909 6.67285 12.0442 7.35767 13.2632 8.57666C14.4822 9.79564 15.167 11.4489 15.167 13.1729C15.167 14.8968 14.4822 16.5501 13.2632 17.769C12.0442 18.988 10.3909 19.6729 8.66699 19.6729C6.94308 19.6729 5.28978 18.988 4.0708 17.769C2.85181 16.5501 2.16699 14.8968 2.16699 13.1729C2.16699 11.4489 2.85181 9.79564 4.0708 8.57666C5.28978 7.35767 6.94308 6.67285 8.66699 6.67285ZM18.417 7.75618C20.042 7.75618 21.1253 10.1818 21.1253 13.1729C21.1253 16.1639 20.042 18.5895 18.417 18.5895C16.792 18.5895 15.7087 16.1639 15.7087 13.1729C15.7087 10.1818 16.792 7.75618 18.417 7.75618ZM22.7503 8.29785C23.162 8.29785 23.5217 9.19377 23.7037 10.731L23.7546 11.2109L23.7752 11.4655L23.8077 12.0007L23.8185 12.2813L23.8315 12.8674L23.8337 13.1729L23.8315 13.4784L23.8185 14.0644L23.8077 14.3461L23.7752 14.8802L23.7535 15.1348L23.7047 15.6147C23.5217 17.153 23.1631 18.0479 22.7503 18.0479C22.3387 18.0479 21.979 17.1519 21.797 15.6147L21.7461 15.1348C21.7386 15.05 21.7318 14.9651 21.7255 14.8802L21.693 14.345C21.6888 14.2515 21.6852 14.158 21.6822 14.0644L21.6692 13.4784V12.8674L21.6822 12.2813L21.693 11.9996L21.7255 11.4655L21.7472 11.2109L21.7959 10.731C21.979 9.19269 22.3376 8.29785 22.7503 8.29785Z" fill="#9F9F9F"/>
</g>
<defs>
<clipPath id="clip0_2038_1895">
<rect width="26" height="26" fill="white" transform="translate(0 0.172852)"/>
</clipPath>
</defs>
</svg>
