<svg width="22" height="22" viewBox="0 0 22 22" fill="none" xmlns="http://www.w3.org/2000/svg">
<path d="M15.5695 12.375C15.5695 12.7269 15.4297 13.0644 15.1809 13.3132C14.9321 13.5621 14.5946 13.7018 14.2427 13.7018C13.8907 13.7018 13.5533 13.5621 13.3044 13.3132C13.0556 13.0644 12.9158 12.7269 12.9158 12.375C12.9158 12.0231 13.0556 11.6856 13.3044 11.4367C13.5533 11.1879 13.8907 11.0481 14.2427 11.0481C14.5946 11.0481 14.9321 11.1879 15.1809 11.4367C15.4297 11.6856 15.5695 12.0231 15.5695 12.375ZM7.7522 13.7014C8.10398 13.7014 8.44136 13.5616 8.69012 13.3129C8.93887 13.0641 9.07861 12.7268 9.07861 12.375C9.07861 12.0232 8.93887 11.6858 8.69012 11.4371C8.44136 11.1883 8.10398 11.0486 7.7522 11.0486C7.40041 11.0486 7.06303 11.1883 6.81428 11.4371C6.56553 11.6858 6.42578 12.0232 6.42578 12.375C6.42578 12.7268 6.56553 13.0641 6.81428 13.3129C7.06303 13.5616 7.40041 13.7014 7.7522 13.7014ZM8.11245 15.2432C7.95848 15.1526 7.7753 15.1256 7.60171 15.1677C7.42811 15.2098 7.27773 15.3179 7.18242 15.469C7.0871 15.62 7.05433 15.8023 7.09104 15.9771C7.12776 16.1519 7.23107 16.3056 7.37911 16.4056L7.69536 16.6054C8.68353 17.2287 9.82797 17.5594 10.9963 17.5594C12.1646 17.5594 13.309 17.2287 14.2972 16.6054L14.6134 16.4065C14.6899 16.3583 14.7561 16.2956 14.8083 16.2218C14.8605 16.1481 14.8976 16.0648 14.9176 15.9767C14.9377 15.8886 14.9401 15.7974 14.9249 15.7084C14.9096 15.6193 14.877 15.5342 14.8289 15.4577C14.7807 15.3813 14.718 15.3151 14.6442 15.2629C14.5705 15.2107 14.4872 15.1735 14.3991 15.1535C14.311 15.1335 14.2198 15.1311 14.1308 15.1463C14.0417 15.1615 13.9566 15.1942 13.8801 15.2423L13.5639 15.4421C12.7952 15.927 11.905 16.1843 10.9963 16.1843C10.0875 16.1843 9.19732 15.927 8.4287 15.4421L8.11245 15.2432Z" fill="#010101"/>
<path fill-rule="evenodd" clip-rule="evenodd" d="M18.2964 1.60425C17.4961 1.60425 16.7967 2.04333 16.4282 2.69325L13.1282 2.01583C12.9727 1.98398 12.811 2.00693 12.6704 2.08078C12.5299 2.15463 12.4193 2.27484 12.3573 2.421C11.9806 3.3065 11.4159 4.64942 10.9438 5.79892C10.777 6.20592 10.6211 6.59 10.4901 6.92183C8.61364 6.997 6.87564 7.48742 5.45389 8.28217C5.22505 7.89839 4.90799 7.57471 4.52903 7.33798C4.15007 7.10124 3.72013 6.95828 3.27487 6.92094C2.8296 6.8836 2.38185 6.95296 1.96876 7.12327C1.55566 7.29358 1.18913 7.55993 0.899554 7.90022C0.609982 8.24052 0.40572 8.64495 0.303712 9.07998C0.201704 9.51501 0.204889 9.96809 0.313003 10.4016C0.421118 10.8352 0.631045 11.2367 0.925373 11.5729C1.2197 11.9091 1.58994 12.1703 2.00539 12.3347C1.88317 12.7747 1.82176 13.2303 1.82114 13.7015C1.82114 15.665 2.92939 17.3792 4.59406 18.5754C6.26056 19.7735 8.52656 20.4922 10.9997 20.4922C13.472 20.4922 15.7389 19.7735 17.4054 18.5763C19.0701 17.3792 20.1783 15.665 20.1783 13.7015C20.1783 13.2303 20.1141 12.7738 19.995 12.3357C20.4103 12.1711 20.7804 11.9099 21.0746 11.5737C21.3688 11.2376 21.5787 10.8361 21.6867 10.4026C21.7948 9.96915 21.7979 9.51616 21.696 9.08122C21.594 8.64628 21.3898 8.24192 21.1003 7.90166C20.8108 7.5614 20.4444 7.29505 20.0314 7.12469C19.6185 6.95433 19.1708 6.88487 18.7256 6.92207C18.2805 6.95926 17.8506 7.10205 17.4716 7.33858C17.0926 7.57512 16.7755 7.89858 16.5465 8.28217C15.2384 7.55158 13.6636 7.07767 11.9604 6.9475C12.0411 6.74828 12.1266 6.53928 12.2171 6.3205C12.6002 5.38458 13.0476 4.31758 13.4032 3.47608L16.1697 4.04442C16.2259 4.45292 16.3984 4.83663 16.6668 5.14972C16.9351 5.4628 17.2879 5.69201 17.683 5.80998C18.0781 5.92795 18.4989 5.92968 18.8949 5.81497C19.291 5.70027 19.6457 5.47397 19.9166 5.16311C20.1875 4.85225 20.3632 4.46998 20.4227 4.06195C20.4823 3.65391 20.423 3.23738 20.2522 2.86209C20.0813 2.48681 19.8061 2.16864 19.4592 1.94559C19.1124 1.72254 18.7087 1.60404 18.2964 1.60425ZM17.5246 3.75108C17.5246 3.54626 17.6059 3.34982 17.7508 3.20499C17.8956 3.06016 18.092 2.97879 18.2969 2.97879C18.5017 2.97879 18.6981 3.06016 18.8429 3.20499C18.9878 3.34982 19.0691 3.54626 19.0691 3.75108C19.0691 3.95591 18.9878 4.15234 18.8429 4.29717C18.6981 4.44201 18.5017 4.52337 18.2969 4.52337C18.092 4.52337 17.8956 4.44201 17.7508 4.29717C17.6059 4.15234 17.5246 3.95591 17.5246 3.75108ZM10.9997 8.28675C11.1403 8.28675 11.2808 8.2895 11.4214 8.295C11.4191 8.32388 11.4154 8.35263 11.4104 8.38117L11.4086 8.38575L11.4113 8.37658L11.4379 8.29592C13.4766 8.37475 15.2888 9.00175 16.6024 9.94592C18.0113 10.9579 18.8033 12.2953 18.8033 13.7024C18.8033 15.1104 18.0104 16.4478 16.6033 17.4607C15.1953 18.4709 13.2171 19.1181 10.9997 19.1181C8.78231 19.1181 6.80414 18.4709 5.39706 17.4598C3.98814 16.4478 3.19614 15.1104 3.19614 13.7024C3.19614 12.2953 3.98814 10.9579 5.39614 9.94592C6.80414 8.93392 8.78323 8.28583 10.9997 8.28583M1.60389 9.72133C1.60397 9.40135 1.71095 9.09057 1.90785 8.83834C2.10475 8.58611 2.38028 8.4069 2.69068 8.32917C3.00108 8.25144 3.32854 8.27965 3.62108 8.40931C3.91361 8.53897 4.15444 8.76265 4.30531 9.04483C3.57289 9.62233 2.96423 10.3034 2.53248 11.0652C2.25974 10.9617 2.02489 10.7777 1.85906 10.5378C1.69323 10.2978 1.60424 10.013 1.60389 9.72133ZM19.467 11.0652C19.0352 10.3043 18.4266 9.62141 17.6941 9.04483C17.8036 8.8403 17.961 8.66535 18.1529 8.53496C18.3448 8.40457 18.5654 8.32263 18.7959 8.29615C19.0264 8.26967 19.2598 8.29944 19.4763 8.38292C19.6927 8.4664 19.8857 8.60109 20.0387 8.77546C20.1917 8.94983 20.3002 9.15869 20.3549 9.38416C20.4095 9.60962 20.4087 9.84496 20.3525 10.07C20.2963 10.2951 20.1864 10.5032 20.0321 10.6765C19.8779 10.8498 19.684 10.9832 19.467 11.0652Z" fill="#010101"/>
</svg>
