<svg width="20" height="20" viewBox="0 0 20 20" fill="none" xmlns="http://www.w3.org/2000/svg">
<g clip-path="url(#clip0_2038_1493)">
<path d="M19.2853 10.0001C19.2853 12.4628 18.307 14.8247 16.5656 16.5661C14.8242 18.3075 12.4623 19.2858 9.99958 19.2858C7.53686 19.2858 5.175 18.3075 3.43359 16.5661C1.69218 14.8247 0.713867 12.4628 0.713867 10.0001M19.2853 10.0001C19.2853 7.53735 18.307 5.17549 16.5656 3.43408C14.8242 1.69267 12.4623 0.714355 9.99958 0.714355C7.53686 0.714355 5.175 1.69267 3.43359 3.43408C1.69218 5.17549 0.713867 7.53735 0.713867 10.0001M19.2853 10.0001H0.713867" stroke="#010101" stroke-width="1.71429" stroke-linecap="round" stroke-linejoin="round"/>
<path d="M13.5706 10.0001C13.3952 13.3958 12.1444 16.6477 9.99916 19.2858C7.85391 16.6477 6.60316 13.3958 6.42773 10.0001C6.60316 6.60437 7.85391 3.35243 9.99916 0.714355C12.1444 3.35243 13.3952 6.60437 13.5706 10.0001Z" stroke="#010101" stroke-width="1.71429" stroke-linecap="round" stroke-linejoin="round"/>
</g>
<defs>
<clipPath id="clip0_2038_1493">
<rect width="20" height="20" fill="white"/>
</clipPath>
</defs>
</svg>
