<svg width="24" height="36" viewBox="0 0 24 36" fill="none" xmlns="http://www.w3.org/2000/svg">
<path d="M12.576 12.4343C12.4567 12.4692 12.3474 12.5315 12.2566 12.6163C10.424 14.3231 8.73213 15.8934 7.18103 17.3271C7.14591 17.3598 7.11811 17.3995 7.09944 17.4436C7.08076 17.4877 7.07164 17.5353 7.07267 17.5832C7.07838 17.769 7.18194 17.897 7.38334 17.9672C8.77666 18.4489 10.1273 18.923 11.4352 19.3895C11.4799 19.4058 11.5197 19.4331 11.5508 19.469C11.5819 19.5049 11.6033 19.548 11.613 19.5945C11.6227 19.6409 11.6204 19.689 11.6062 19.7343C11.5921 19.7796 11.5666 19.8205 11.5322 19.8532C9.84392 21.4443 8.15299 23.0175 6.45942 24.5726C6.37005 24.654 6.25124 24.6474 6.103 24.5527C6.05904 24.5241 6.02591 24.4818 6.00885 24.4323C5.9918 24.3828 5.9918 24.3291 6.00885 24.2796L6.72745 22.1545C6.82441 21.8701 6.73128 21.6776 6.44803 21.577L0.212007 19.3641C0.160552 19.3461 0.114618 19.3152 0.0786539 19.2743C0.0426902 19.2335 0.0179165 19.184 0.00673271 19.1308C-0.00445104 19.0776 -0.0016656 19.0224 0.0148191 18.9705C0.0313038 18.9187 0.0609289 18.872 0.100824 18.8349L20.1582 0.162104C20.2506 0.0752887 20.3685 0.0204308 20.4946 0.00563319C20.7703 -0.0266127 20.8682 0.0795796 20.7883 0.32421C19.4634 4.42445 18.1127 8.6043 16.7364 12.8638C16.6452 13.1445 16.7383 13.3332 17.0159 13.4298C19.2989 14.2396 21.4623 15.0153 23.5058 15.7568C23.6161 15.7953 23.7138 15.8632 23.7882 15.9531C23.8235 15.9961 23.8411 16.0509 23.8374 16.1064C23.8336 16.1618 23.8089 16.2138 23.7682 16.2518C16.7326 22.8555 9.80824 29.369 2.99506 35.7924C2.81449 35.9631 2.64055 36.0285 2.47322 35.9887C2.31161 35.9508 2.25648 35.854 2.30782 35.6986L4.25535 29.6563C4.33238 29.417 4.46985 29.2015 4.65452 29.0304L16.7249 17.8051C16.7665 17.766 16.7975 17.717 16.8149 17.6626C16.8322 17.6082 16.8353 17.5503 16.8239 17.4944C16.8126 17.4388 16.787 17.3871 16.7497 17.3443C16.7123 17.3015 16.6645 17.2691 16.6108 17.2502L12.3223 15.7287C12.2255 15.6945 12.1459 15.6238 12.1007 15.5319C12.0554 15.4399 12.0479 15.3339 12.0798 15.2366L12.8839 12.7531C12.8982 12.7099 12.9003 12.6636 12.8901 12.6192C12.8799 12.5748 12.8578 12.5341 12.8262 12.5013C12.7945 12.4685 12.7544 12.445 12.7104 12.4332C12.6663 12.4215 12.6198 12.4219 12.576 12.4346V12.4343Z" fill="#1098F7"/>
</svg>
