<svg width="26" height="27" viewBox="0 0 26 27" fill="none" xmlns="http://www.w3.org/2000/svg">
<path d="M21.6608 7.41818C22.6319 6.83761 23.3586 5.92344 23.705 4.84635C22.7925 5.3878 21.7941 5.76922 20.7529 5.9741C19.3095 4.44717 17.0225 4.07559 15.1699 5.06698C13.3173 6.05837 12.3577 8.1673 12.8273 10.2153C9.08935 10.0277 5.60683 8.26201 3.24628 5.35768C2.01436 7.48255 2.64389 10.1989 4.68495 11.5652C3.94688 11.5415 3.22518 11.3416 2.58003 10.9823C2.58003 11.0018 2.58003 11.0213 2.58003 11.0408C2.58046 13.2543 4.14043 15.1609 6.30994 15.5995C5.62535 15.7858 4.90725 15.8132 4.21045 15.6797C4.82058 17.5726 6.56513 18.8693 8.55353 18.908C6.90668 20.2006 4.87288 20.9015 2.77936 20.8981C2.40829 20.8986 2.03751 20.8773 1.66895 20.8342C3.79487 22.2003 6.26918 22.9254 8.79619 22.9228C12.3119 22.947 15.6906 21.561 18.1765 19.0749C20.6624 16.5887 22.0481 13.2099 22.0237 9.69427C22.0237 9.49277 22.019 9.29235 22.0096 9.09302C22.9201 8.435 23.7059 7.61984 24.3301 6.68585C23.4819 7.06183 22.5821 7.30868 21.6608 7.41818Z" fill="#9F9F9F"/>
</svg>
