<svg width="26" height="27" viewBox="0 0 26 27" fill="none" xmlns="http://www.w3.org/2000/svg">
<path d="M10.8337 16.4228L16.4562 13.1728L10.8337 9.92284V16.4228ZM23.357 7.94034C23.4978 8.44951 23.5953 9.13201 23.6603 9.99867C23.7362 10.8653 23.7687 11.6128 23.7687 12.2628L23.8337 13.1728C23.8337 15.5453 23.6603 17.2895 23.357 18.4053C23.0862 19.3803 22.4578 20.0087 21.4828 20.2795C20.9737 20.4203 20.042 20.5178 18.612 20.5828C17.2037 20.6587 15.9145 20.6912 14.7228 20.6912L13.0003 20.7562C8.46116 20.7562 5.63366 20.5828 4.51783 20.2795C3.54283 20.0087 2.91449 19.3803 2.64366 18.4053C2.50283 17.8962 2.40533 17.2137 2.34033 16.347C2.26449 15.4803 2.23199 14.7328 2.23199 14.0828L2.16699 13.1728C2.16699 10.8003 2.34033 9.05617 2.64366 7.94034C2.91449 6.96534 3.54283 6.33701 4.51783 6.06617C5.02699 5.92534 5.95866 5.82784 7.38866 5.76284C8.79699 5.68701 10.0862 5.65451 11.2778 5.65451L13.0003 5.58951C17.5395 5.58951 20.367 5.76284 21.4828 6.06617C22.4578 6.33701 23.0862 6.96534 23.357 7.94034Z" fill="#9F9F9F"/>
</svg>
