<svg width="49" height="31" viewBox="0 0 49 31" fill="none" xmlns="http://www.w3.org/2000/svg">
<path d="M42.3145 14.3938C42.4053 13.8528 42.4605 13.3064 42.4797 12.7581C42.4874 9.95182 41.5629 7.22241 39.8513 4.99849C38.1397 2.77456 35.738 1.18207 33.0232 0.471083C30.3085 -0.239904 27.4344 -0.0291211 24.8525 1.07033C22.2705 2.16979 20.1268 4.09564 18.758 6.54549C17.9407 6.23296 17.0771 6.05843 16.2026 6.02905C15.1443 6.0288 14.0964 6.23703 13.1185 6.64185C12.1407 7.04667 11.2522 7.64015 10.5038 8.38839C9.75538 9.13664 9.16169 10.025 8.75664 11.0027C8.35158 11.9804 8.1431 13.0284 8.1431 14.0867C8.1431 14.1327 8.16806 14.1711 8.16998 14.2153C6.11287 14.3648 4.19449 15.3084 2.82032 16.8465C1.44615 18.3846 0.723868 20.3967 0.806134 22.4576C0.888401 24.5185 1.76877 26.4667 3.26117 27.8903C4.75356 29.314 6.74104 30.1016 8.80353 30.0867H40.7998C42.9215 30.0867 44.9564 29.2439 46.4567 27.7436C47.9569 26.2433 48.7998 24.2084 48.7998 22.0867C48.7835 20.25 48.1268 18.4765 46.9428 17.0721C45.7589 15.6678 44.1221 14.7205 42.3145 14.3938Z" fill="#2752E7"/>
</svg>
