<svg width="33" height="36" viewBox="0 0 33 36" fill="none" xmlns="http://www.w3.org/2000/svg">
<path d="M16.5996 0C15.5387 0 14.5213 0.421427 13.7712 1.17157C13.021 1.92172 12.5996 2.93913 12.5996 4V4.682C7.93961 6.33 4.59961 10.776 4.59961 16V26H2.59961C2.06918 26 1.56047 26.2107 1.1854 26.5858C0.810323 26.9609 0.599609 27.4696 0.599609 28C0.599609 28.5304 0.810323 29.0391 1.1854 29.4142C1.56047 29.7893 2.06918 30 2.59961 30H30.5996C31.13 30 31.6388 29.7893 32.0138 29.4142C32.3889 29.0391 32.5996 28.5304 32.5996 28C32.5996 27.4696 32.3889 26.9609 32.0138 26.5858C31.6388 26.2107 31.13 26 30.5996 26H28.5996V16C28.5999 13.5179 27.8308 11.0967 26.3981 9.06978C24.9654 7.04287 22.9396 5.50993 20.5996 4.682V4C20.5996 2.93913 20.1782 1.92172 19.428 1.17157C18.6779 0.421427 17.6605 0 16.5996 0ZM16.5996 36C15.5387 36 14.5213 35.5786 13.7712 34.8284C13.021 34.0783 12.5996 33.0609 12.5996 32H20.5996C20.5996 33.0609 20.1782 34.0783 19.428 34.8284C18.6779 35.5786 17.6605 36 16.5996 36Z" fill="#FF3500"/>
</svg>
