<svg width="56" height="56" viewBox="0 0 56 56" fill="none" xmlns="http://www.w3.org/2000/svg">
<path d="M49.0525 37.2106V17.4737L32.6052 8.22241M23.3946 8.22241L6.94727 17.4737V37.2106M10.8946 43.379L27.9999 53L38.5262 47.079L45.1052 43.379" stroke="#FF3500" stroke-width="5" stroke-linecap="round" stroke-linejoin="round"/>
<path d="M24.0528 22.4079L20.1055 24.7105V33.921L24.0528 36.2236L28.0002 38.5263L31.9476 36.2236L35.8949 33.921V24.7105L31.9476 22.4079L28.0002 20.1052L24.0528 22.4079Z" fill="#FF3500" stroke="#FF3500" stroke-width="5" stroke-linecap="round" stroke-linejoin="round"/>
<path d="M27.9998 20.1053V10.8948M35.8945 33.2632L45.1051 38.5264M20.1051 33.2632L10.8945 38.5264" stroke="#FF3500" stroke-width="5" stroke-linecap="round" stroke-linejoin="round"/>
<path d="M28.0001 10.8947C30.1802 10.8947 31.9475 9.12744 31.9475 6.94737C31.9475 4.7673 30.1802 3 28.0001 3C25.82 3 24.0527 4.7673 24.0527 6.94737C24.0527 9.12744 25.82 10.8947 28.0001 10.8947Z" fill="#FF3500" stroke="#FF3500" stroke-width="5" stroke-linecap="round" stroke-linejoin="round"/>
<path d="M6.94737 45.1052C9.12744 45.1052 10.8947 43.3379 10.8947 41.1578C10.8947 38.9777 9.12744 37.2104 6.94737 37.2104C4.7673 37.2104 3 38.9777 3 41.1578C3 43.3379 4.7673 45.1052 6.94737 45.1052Z" fill="#FF3500" stroke="#FF3500" stroke-width="5" stroke-linecap="round" stroke-linejoin="round"/>
<path d="M49.0528 45.1052C51.2329 45.1052 53.0002 43.3379 53.0002 41.1578C53.0002 38.9777 51.2329 37.2104 49.0528 37.2104C46.8728 37.2104 45.1055 38.9777 45.1055 41.1578C45.1055 43.3379 46.8728 45.1052 49.0528 45.1052Z" fill="#FF3500" stroke="#FF3500" stroke-width="5" stroke-linecap="round" stroke-linejoin="round"/>
</svg>
