<svg width="47" height="46" viewBox="0 0 47 46" fill="none" xmlns="http://www.w3.org/2000/svg">
<path d="M1.75033 21.25L10.7503 29.5L8.25033 41C8.00033 42.5 8.50033 44 9.75033 44.75C10.2503 45.25 11.0003 45.5 11.7503 45.5C12.2503 45.5 12.7503 45.5 13.2503 45.25C13.2503 45.25 13.5003 45.25 13.5003 45L23.7503 39.25L34.0003 45C34.0003 45 34.2503 45 34.2503 45.25C35.5003 45.75 37.0003 45.75 38.0003 45C39.2503 44.25 39.7503 42.75 39.5003 41.25L37.0003 29.75C38.0003 29 39.5003 27.5 41.0003 26L45.7503 21.75L46.0003 21.5C47.0003 20.5 47.2503 19 46.7503 17.75C46.2503 16.5 45.2503 15.5 43.7503 15.25H43.5003L31.7503 14L27.0003 3.25C27.0003 3.25 27.0003 3 26.7503 3C26.5003 1.25 25.2503 0.5 24.0003 0.5C22.7503 0.5 21.5003 1.25 20.7503 2.5C20.7503 2.5 20.7503 2.75 20.5003 2.75L15.7503 13.5L4.00033 14.75H3.75033C2.50033 15 1.25033 16 0.750326 17.25C0.500326 18.75 0.750326 20.25 1.75033 21.25Z" fill="#FFBA0C"/>
</svg>
