<svg width="54" height="54" viewBox="0 0 54 54" fill="none" xmlns="http://www.w3.org/2000/svg">
<path d="M27 0.75C12.5039 0.75 0.75 12.5039 0.75 27C0.75 41.4961 12.5039 53.25 27 53.25C41.4961 53.25 53.25 41.4961 53.25 27C53.25 12.5039 41.4961 0.75 27 0.75ZM47.8945 18.6211L40.6875 20.8359C39.9492 19.1953 38.918 17.6953 37.6055 16.3828C36.293 15.0703 34.793 14.0391 33.1523 13.3008L35.3672 6.09375C38.1562 7.20703 40.7109 8.89453 42.9023 11.0742C45.0938 13.2773 46.7812 15.832 47.8945 18.6211ZM27 38.25C20.7891 38.25 15.75 33.2109 15.75 27C15.75 20.7891 20.7891 15.75 27 15.75C33.2109 15.75 38.25 20.7891 38.25 27C38.25 33.2109 33.2109 38.25 27 38.25ZM11.0859 11.0859C13.2773 8.89453 15.832 7.21875 18.6211 6.10547L20.8359 13.3125C19.1953 14.0508 17.6953 15.082 16.3828 16.3945C15.0703 17.707 14.0391 19.207 13.3008 20.8477L6.09375 18.6328C7.21875 15.832 8.90625 13.2773 11.0859 11.0859ZM6.10547 35.3789L13.3125 33.1641C14.0508 34.8047 15.082 36.3047 16.3945 37.6172C17.707 38.9297 19.207 39.9609 20.8477 40.6992L18.6328 47.9062C15.8438 46.793 13.2891 45.1055 11.0977 42.9258C8.90625 40.7227 7.21875 38.168 6.10547 35.3789ZM42.9141 42.9141C40.7227 45.1055 38.168 46.7812 35.3789 47.8945L33.1641 40.6875C34.8047 39.9492 36.3047 38.918 37.6172 37.6055C38.9297 36.293 39.9609 34.793 40.6992 33.1523L47.9062 35.3672C46.7812 38.168 45.0938 40.7227 42.9141 42.9141Z" fill="#2D59E9"/>
</svg>
