<svg width="46" height="52" viewBox="0 0 46 52" fill="none" xmlns="http://www.w3.org/2000/svg">
<path d="M3.5 52H42.6365C43.4985 52 44.3251 51.6576 44.9346 51.0481C45.5441 50.4386 45.8865 49.612 45.8865 48.75V3.25C45.8865 2.38805 45.5441 1.5614 44.9346 0.951903C44.3251 0.34241 43.4985 0 42.6365 0L3.5 0C2.63805 0 1.8114 0.34241 1.2019 0.951903C0.59241 1.5614 0.25 2.38805 0.25 3.25V48.75C0.25 49.612 0.59241 50.4386 1.2019 51.0481C1.8114 51.6576 2.63805 52 3.5 52ZM21.375 9.75H34.5115C34.9425 9.75 35.3558 9.92121 35.6606 10.226C35.9653 10.5307 36.1365 10.944 36.1365 11.375C36.1365 11.806 35.9653 12.2193 35.6606 12.524C35.3558 12.8288 34.9425 13 34.5115 13H21.375C20.944 13 20.5307 12.8288 20.226 12.524C19.9212 12.2193 19.75 11.806 19.75 11.375C19.75 10.944 19.9212 10.5307 20.226 10.226C20.5307 9.92121 20.944 9.75 21.375 9.75ZM11.625 19.5H34.5115C34.9425 19.5 35.3558 19.6712 35.6606 19.976C35.9653 20.2807 36.1365 20.694 36.1365 21.125C36.1365 21.556 35.9653 21.9693 35.6606 22.274C35.3558 22.5788 34.9425 22.75 34.5115 22.75H11.625C11.194 22.75 10.7807 22.5788 10.476 22.274C10.1712 21.9693 10 21.556 10 21.125C10 20.694 10.1712 20.2807 10.476 19.976C10.7807 19.6712 11.194 19.5 11.625 19.5ZM11.625 29.25H34.5115C34.9425 29.25 35.3558 29.4212 35.6606 29.726C35.9653 30.0307 36.1365 30.444 36.1365 30.875C36.1365 31.306 35.9653 31.7193 35.6606 32.024C35.3558 32.3288 34.9425 32.5 34.5115 32.5H11.625C11.194 32.5 10.7807 32.3288 10.476 32.024C10.1712 31.7193 10 31.306 10 30.875C10 30.444 10.1712 30.0307 10.476 29.726C10.7807 29.4212 11.194 29.25 11.625 29.25ZM11.625 39H34.5115C34.9425 39 35.3558 39.1712 35.6606 39.476C35.9653 39.7807 36.1365 40.194 36.1365 40.625C36.1365 41.056 35.9653 41.4693 35.6606 41.774C35.3558 42.0788 34.9425 42.25 34.5115 42.25H11.625C11.194 42.25 10.7807 42.0788 10.476 41.774C10.1712 41.4693 10 41.056 10 40.625C10 40.194 10.1712 39.7807 10.476 39.476C10.7807 39.1712 11.194 39 11.625 39Z" fill="#2FBF71"/>
</svg>
