<svg width="60" height="60" viewBox="0 0 60 60" fill="none" xmlns="http://www.w3.org/2000/svg">
<g clip-path="url(#clip0_2038_2187)">
<mask id="mask0_2038_2187" style="mask-type:luminance" maskUnits="userSpaceOnUse" x="0" y="0" width="60" height="60">
<path d="M60 0H0V60H60V0Z" fill="white"/>
</mask>
<g mask="url(#mask0_2038_2187)">
<path d="M29.2081 44.3764L29.8268 43.6396C30.5084 42.8277 31.7206 42.7218 32.5325 43.4033L34.0062 44.6399C34.8181 45.3214 34.924 46.5336 34.2434 47.3455L33.6246 48.0824L28.0662 54.6974C26.2418 56.8668 23.5437 58.1249 20.7115 58.1249C18.4559 58.1249 16.2668 57.328 14.5381 55.8786L7.18434 49.7052C5.01496 47.8808 3.75684 45.1836 3.75684 42.3411C3.75684 40.0855 4.55371 37.9058 6.0134 36.178L17.1209 22.948C17.1209 22.9386 17.1209 22.9386 17.1209 22.9386C18.9453 20.7693 21.6434 19.5205 24.4756 19.5205C26.7312 19.5205 28.9203 20.3174 30.6481 21.7677L34.2865 24.8202L35.0168 25.4361C35.8278 26.1186 35.9328 27.3327 35.2512 28.1446L34.0231 29.6089C33.3425 30.4208 32.1303 30.5268 31.3184 29.8461L30.5815 29.2274L26.9422 26.1739C26.2512 25.5983 25.3775 25.2814 24.4756 25.2814C23.3421 25.2814 22.2668 25.7802 21.5375 26.6446L10.4196 39.8839C9.84402 40.5749 9.51777 41.4486 9.51777 42.3514C9.51777 43.4839 10.0259 44.5593 10.8903 45.2886L18.244 51.4621C18.9359 52.048 19.8096 52.3649 20.7115 52.3649C21.845 52.3649 22.9203 51.8652 23.6496 50.9914L29.2081 44.3764Z" fill="#FF3500"/>
<path d="M30.7929 15.6234L30.1742 16.3603C29.4936 17.1722 28.2814 17.2781 27.4695 16.5966L25.9948 15.36C25.1829 14.6784 25.077 13.4663 25.7586 12.6544L26.3773 11.9175L31.9357 5.3025C33.7601 3.13313 36.4573 1.875 39.2895 1.875C41.5461 1.875 43.7351 2.67187 45.4629 4.12125L52.8167 10.2947C54.987 12.1191 56.2442 14.8163 56.2442 17.6588C56.2442 19.9144 55.4473 22.0941 53.9886 23.8219L42.8801 37.0519C42.8801 37.0613 42.8801 37.0613 42.8801 37.0613C41.0557 39.2306 38.3586 40.4794 35.5264 40.4794C33.2698 40.4794 31.0807 39.6825 29.3529 38.2322L25.7145 35.1797L24.9842 34.5638C24.1742 33.8813 24.0692 32.6672 24.7498 31.8553L25.9779 30.3909C26.6595 29.5791 27.8707 29.4731 28.6826 30.1538L29.4204 30.7725L33.0589 33.8259C33.7498 34.4016 34.6236 34.7184 35.5264 34.7184C36.6589 34.7184 37.7342 34.2197 38.4645 33.3553L49.5814 20.1159C50.1579 19.425 50.4842 18.5513 50.4842 17.6484C50.4842 16.5159 49.9751 15.4406 49.1107 14.7113L41.757 8.53781C41.0661 7.95188 40.1923 7.635 39.2895 7.635C38.157 7.635 37.0817 8.13469 36.3523 9.00844L30.7929 15.6234Z" fill="#FF3500"/>
</g>
</g>
<defs>
<clipPath id="clip0_2038_2187">
<rect width="60" height="60" fill="white"/>
</clipPath>
</defs>
</svg>
