<svg width="31" height="30" viewBox="0 0 31 30" fill="none" xmlns="http://www.w3.org/2000/svg">
<g clip-path="url(#clip0_2038_2603)">
<path d="M15.2725 30C23.5567 30 30.2725 23.2843 30.2725 15C30.2725 6.71573 23.5567 0 15.2725 0C6.98819 0 0.272461 6.71573 0.272461 15C0.272461 23.2843 6.98819 30 15.2725 30Z" fill="#0052FF"/>
<path d="M15.3388 25.4237C21.1526 25.4237 25.8655 20.7189 25.8655 14.9152C25.8655 9.11154 21.1526 4.40674 15.3388 4.40674C9.82298 4.40674 5.29804 8.64157 4.84863 14.0319H18.7627V15.7985H4.84863C5.29804 21.1888 9.82298 25.4237 15.3388 25.4237Z" fill="white"/>
</g>
<defs>
<clipPath id="clip0_2038_2603">
<rect width="30" height="30" fill="white" transform="translate(0.272461)"/>
</clipPath>
</defs>
</svg>
