<svg width="30" height="30" viewBox="0 0 30 30" fill="none" xmlns="http://www.w3.org/2000/svg">
<g clip-path="url(#clip0_2038_2627)">
<path d="M15 0C23.285 0 30 6.71632 30 15C30 23.285 23.285 30 15 30C6.71632 30 0 23.2844 0 15C0 6.71632 6.71632 0 15 0Z" fill="#F5AC37"/>
<path d="M15.5527 16.059H21.2525C21.374 16.059 21.4314 16.059 21.4402 15.8997C21.4867 15.3198 21.4867 14.7366 21.4402 14.1561C21.4402 14.0434 21.3841 13.9968 21.262 13.9968H9.91846C9.77806 13.9968 9.74026 14.0434 9.74026 14.175V15.8436C9.74026 16.059 9.74026 16.059 9.96504 16.059H15.5527ZM20.8036 12.0467C20.8198 12.0042 20.8198 11.9576 20.8036 11.9158C20.7084 11.7085 20.5957 11.5108 20.4648 11.3251C20.2677 11.0079 20.0355 10.7156 19.7709 10.453C19.646 10.2944 19.5015 10.152 19.3395 10.0312C18.5282 9.34062 17.5636 8.85192 16.5268 8.60622C16.0036 8.48876 15.469 8.43274 14.9331 8.43746H9.89889C9.75849 8.43746 9.73959 8.49349 9.73959 8.61567V11.9434C9.73959 12.0839 9.73959 12.1217 9.91779 12.1217H20.7361C20.7361 12.1217 20.8299 12.1028 20.8488 12.0467H20.8029H20.8036ZM20.8036 18.0091C20.6443 17.9915 20.4837 17.9915 20.3244 18.0091H9.92791C9.78751 18.0091 9.74026 18.0091 9.74026 18.1967V21.4502C9.74026 21.6001 9.74026 21.6379 9.92791 21.6379H14.7279C14.9574 21.6554 15.1869 21.6392 15.4117 21.5913C16.1083 21.5414 16.7934 21.3902 17.4468 21.1411C17.6844 21.0587 17.9139 20.9514 18.1306 20.8225H18.1961C19.3213 20.2373 20.2353 19.3179 20.8117 18.1893C20.8117 18.1893 20.8772 18.0475 20.8036 18.0104V18.0091ZM7.85632 23.3247V23.2687V21.0844V20.3439V18.1407C7.85632 18.0185 7.85632 18.0003 7.70647 18.0003H5.672C5.55927 18.0003 5.5127 18.0003 5.5127 17.8504V16.0691H7.68757C7.80907 16.0691 7.85632 16.0691 7.85632 15.9098V14.1473C7.85632 14.0346 7.85632 14.0069 7.70647 14.0069H5.672C5.55927 14.0069 5.5127 14.0069 5.5127 13.8571V12.2074C5.5127 12.1041 5.5127 12.0764 5.66255 12.0764H7.67812C7.81852 12.0764 7.85632 12.0764 7.85632 11.8982V6.84512C7.85632 6.69527 7.85632 6.65747 8.04397 6.65747H15.0748C15.5851 6.67772 16.0921 6.73375 16.5936 6.82622C17.627 7.01725 18.62 7.38648 19.5279 7.91366C20.13 8.26804 20.6841 8.69599 21.1776 9.18875C21.5488 9.57418 21.8836 9.99133 22.1806 10.4355C22.4756 10.8857 22.7206 11.367 22.913 11.8699C22.9366 12.0008 23.0622 12.0893 23.1931 12.067H24.8712C25.0865 12.067 25.0865 12.067 25.096 12.2735V13.8112C25.096 13.961 25.04 13.9988 24.8894 13.9988H23.5955C23.4645 13.9988 23.4267 13.9988 23.4362 14.1676C23.4875 14.7387 23.4875 15.3117 23.4362 15.8828C23.4362 16.0421 23.4361 16.061 23.615 16.061H25.0953C25.1608 16.1454 25.0953 16.2297 25.0953 16.3148C25.1048 16.4235 25.1048 16.5335 25.0953 16.6422V17.7769C25.0953 17.9362 25.0487 17.9834 24.9077 17.9834H23.1358C23.0122 17.9598 22.8921 18.0388 22.8637 18.1616C22.4419 19.2585 21.7669 20.242 20.8947 21.0304C20.5761 21.3173 20.2413 21.5873 19.8917 21.8363C19.5164 22.0523 19.1512 22.2771 18.7665 22.4553C18.0584 22.7739 17.3159 23.0088 16.5538 23.158C15.8302 23.2876 15.0964 23.3463 14.36 23.3362H7.85362V23.3268L7.85632 23.3247Z" fill="#FEFEFD"/>
</g>
<defs>
<clipPath id="clip0_2038_2627">
<rect width="30" height="30" fill="white"/>
</clipPath>
</defs>
</svg>
