<svg width="52" height="53" viewBox="0 0 52 53" fill="none" xmlns="http://www.w3.org/2000/svg">
<circle cx="25.6536" cy="26.4805" r="25.6536" fill="#2FBF71"/>
<path d="M14.1094 34.1101C14.1094 32.6567 15.2876 31.4784 16.7411 31.4784H34.0351C35.4886 31.4784 36.6668 32.6567 36.6668 34.1101C36.6668 35.5635 35.4886 36.7418 34.0351 36.7418H16.7411C15.2876 36.7418 14.1094 35.5635 14.1094 34.1101Z" fill="white"/>
<path d="M14.1094 25.839C14.1094 24.3856 15.2876 23.2073 16.7411 23.2073H34.0351C35.4886 23.2073 36.6668 24.3856 36.6668 25.839C36.6668 27.2925 35.4886 28.4707 34.0351 28.4707H16.7411C15.2876 28.4707 14.1094 27.2925 14.1094 25.839Z" fill="white"/>
<path d="M14.1094 17.568C14.1094 16.1145 15.2876 14.9363 16.7411 14.9363H34.0351C35.4886 14.9363 36.6668 16.1145 36.6668 17.568C36.6668 19.0214 35.4886 20.1997 34.0351 20.1997H16.7411C15.2876 20.1997 14.1094 19.0214 14.1094 17.568Z" fill="white"/>
</svg>
