<svg width="30" height="30" viewBox="0 0 30 30" fill="none" xmlns="http://www.w3.org/2000/svg">
<circle cx="15" cy="15" r="15" fill="url(#paint0_linear_2038_2663)"/>
<path d="M8.25 19.4612C8.25 18.6114 8.93894 17.9224 9.78879 17.9224H19.9009C20.7507 17.9224 21.4397 18.6114 21.4397 19.4612C21.4397 20.3111 20.7507 21 19.9009 21H9.78879C8.93894 21 8.25 20.3111 8.25 19.4612Z" fill="white"/>
<path d="M8.25 14.625C8.25 13.7751 8.93894 13.0862 9.78879 13.0862H19.9009C20.7507 13.0862 21.4397 13.7751 21.4397 14.625C21.4397 15.4749 20.7507 16.1638 19.9009 16.1638H9.78879C8.93894 16.1638 8.25 15.4749 8.25 14.625Z" fill="white"/>
<path d="M8.25 9.78879C8.25 8.93894 8.93894 8.25 9.78879 8.25H19.9009C20.7507 8.25 21.4397 8.93894 21.4397 9.78879C21.4397 10.6386 20.7507 11.3276 19.9009 11.3276H9.78879C8.93894 11.3276 8.25 10.6386 8.25 9.78879Z" fill="white"/>
<defs>
<linearGradient id="paint0_linear_2038_2663" x1="3.5" y1="24" x2="30" y2="9.5" gradientUnits="userSpaceOnUse">
<stop stop-color="#9946FF"/>
<stop offset="1" stop-color="#14F195"/>
</linearGradient>
</defs>
</svg>
