<svg width="30" height="30" viewBox="0 0 30 30" fill="none" xmlns="http://www.w3.org/2000/svg">
<circle cx="15" cy="15" r="15" transform="matrix(1 0 0 -1 0 30)" fill="url(#paint0_linear_2038_2584)"/>
<g clip-path="url(#clip0_2038_2584)">
<path d="M9.78225 18.4064C9.87413 18.313 10.0004 18.2585 10.1344 18.2585H22.2845C22.5065 18.2585 22.6175 18.5309 22.4606 18.6904L20.0604 21.1295C19.9686 21.2229 19.8422 21.2774 19.7083 21.2774H7.55819C7.33616 21.2774 7.22515 21.0051 7.3821 20.8456L9.78225 18.4064Z" fill="white"/>
<path d="M9.78225 9.2992C9.87795 9.20583 10.0043 9.15137 10.1344 9.15137H22.2845C22.5065 9.15137 22.6175 9.42368 22.4606 9.58318L20.0604 12.0224C19.9686 12.1157 19.8422 12.1702 19.7083 12.1702H7.55819C7.33616 12.1702 7.22515 11.8979 7.3821 11.7384L9.78225 9.2992Z" fill="white"/>
<path d="M20.0604 13.8236C19.9686 13.7302 19.8422 13.6758 19.7083 13.6758H7.55819C7.33616 13.6758 7.22515 13.9481 7.3821 14.1076L9.78225 16.5468C9.87413 16.6401 10.0004 16.6946 10.1344 16.6946H22.2845C22.5065 16.6946 22.6175 16.4223 22.4606 16.2628L20.0604 13.8236Z" fill="white"/>
</g>
<defs>
<linearGradient id="paint0_linear_2038_2584" x1="15" y1="0" x2="15" y2="30" gradientUnits="userSpaceOnUse">
<stop stop-color="#C934F7"/>
<stop offset="1" stop-color="#1BE5AE"/>
</linearGradient>
<clipPath id="clip0_2038_2584">
<rect width="15.4799" height="12.1259" fill="white" transform="translate(7.18164 9.15137)"/>
</clipPath>
</defs>
</svg>
