<svg width="30" height="30" viewBox="0 0 30 30" fill="none" xmlns="http://www.w3.org/2000/svg">
<g clip-path="url(#clip0_2038_2590)">
<path d="M15 30C23.2843 30 30 23.2843 30 15C30 6.71573 23.2843 0 15 0C6.71573 0 0 6.71573 0 15C0 23.2843 6.71573 30 15 30Z" fill="#0088CC"/>
<path fill-rule="evenodd" clip-rule="evenodd" d="M10.8214 9.91064H19.2321C19.5536 9.91064 19.8214 9.96422 20.1428 10.1249C20.5178 10.2856 20.7321 10.5535 20.8393 10.7678C20.8393 10.7678 20.8393 10.8214 20.8928 10.8214C21.0536 11.0892 21.1607 11.4106 21.1607 11.7856C21.1607 12.1071 21.1071 12.4285 20.8928 12.7499L15.5893 21.8571C15.4821 22.0714 15.2678 22.1785 15 22.1785C14.7857 22.1785 14.5714 22.0714 14.4107 21.8571L9.21427 12.7499C9.10713 12.5356 8.89284 12.2678 8.89284 11.8392C8.83927 11.4642 8.94641 11.1428 9.10713 10.8214C9.26784 10.4999 9.5357 10.2321 9.9107 10.1249C10.2321 9.91064 10.6071 9.91064 10.8214 9.91064ZM14.3571 11.1964H10.8214C10.6071 11.1964 10.5 11.1964 10.4464 11.2499C10.3393 11.3035 10.2857 11.3571 10.2321 11.4642C10.1786 11.5178 10.1786 11.6249 10.1786 11.7321C10.1786 11.7856 10.2321 11.8392 10.3393 12.0535L14.3571 19.0178V11.1964ZM15.6428 11.1964V19.0714L19.7143 12.0535C19.7678 11.9464 19.7678 11.8392 19.7678 11.7321C19.7678 11.6249 19.7678 11.5178 19.7143 11.4642C19.6607 11.4106 19.6607 11.3571 19.6071 11.3571L19.5536 11.3035C19.4464 11.2499 19.3393 11.2499 19.1786 11.2499H15.6428V11.1964Z" fill="white"/>
</g>
<defs>
<clipPath id="clip0_2038_2590">
<rect width="30" height="30" fill="white"/>
</clipPath>
</defs>
</svg>
