<svg width="30" height="30" viewBox="0 0 30 30" fill="none" xmlns="http://www.w3.org/2000/svg">
<path d="M15 30C23.2874 30 30 23.2827 30 15C30 6.71731 23.2874 0 15 0C6.71264 0 0 6.71731 0 15C0 23.2827 6.71839 30 15 30Z" fill="#FF060A"/>
<path d="M23.1265 11.6612C22.2989 10.9255 21.1495 9.80484 20.2184 9.01174L20.161 8.97725C20.069 8.90829 19.9656 8.85082 19.8564 8.81059C17.6035 8.40829 7.12072 6.52898 6.91957 6.55197C6.8621 6.55771 6.80463 6.5807 6.75865 6.60944L6.70693 6.64967C6.64371 6.71289 6.59199 6.7876 6.56325 6.87381L6.55176 6.90829V7.09794V7.12668C7.72992 10.2761 12.3908 20.5865 13.3104 23.0117C13.3678 23.1784 13.4713 23.4887 13.6667 23.506H13.7127C13.8161 23.506 14.2644 22.937 14.2644 22.937C14.2644 22.937 22.2701 13.6382 23.0805 12.6497C23.1839 12.529 23.2759 12.3968 23.3564 12.2589C23.3793 12.1497 23.3678 12.0405 23.3276 11.937C23.2874 11.8336 23.2127 11.7359 23.1265 11.6612ZM16.3104 12.7474L19.7242 10.0347L21.7299 11.8048L16.3104 12.7474ZM14.9828 12.5692L9.10348 7.94852L18.6207 9.63243L14.9828 12.5692ZM15.5115 13.7761L21.5288 12.8451L14.6495 20.7933L15.5115 13.7761ZM8.30463 8.41404L14.4943 13.4428L13.5977 20.7991L8.30463 8.41404Z" fill="white"/>
</svg>
