<svg width="34" height="42" viewBox="0 0 34 42" fill="none" xmlns="http://www.w3.org/2000/svg">
<path fill-rule="evenodd" clip-rule="evenodd" d="M8.00019 9C8.00019 6.61305 8.9484 4.32387 10.6362 2.63604C12.3241 0.948211 14.6132 0 17.0002 0C19.3871 0 21.6763 0.948211 23.3642 2.63604C25.052 4.32387 26.0002 6.61305 26.0002 9C26.0002 11.3869 25.052 13.6761 23.3642 15.364C21.6763 17.0518 19.3871 18 17.0002 18C14.6132 18 12.3241 17.0518 10.6362 15.364C8.9484 13.6761 8.00019 11.3869 8.00019 9ZM0.502192 37.21C0.569632 32.8789 2.33747 28.7481 5.42411 25.7092C8.51075 22.6702 12.6686 20.9669 17.0002 20.9669C21.3318 20.9669 25.4896 22.6702 28.5763 25.7092C31.6629 28.7481 33.4308 32.8789 33.4982 37.21C33.5034 37.5016 33.4235 37.7883 33.2683 38.0352C33.113 38.2821 32.8892 38.4783 32.6242 38.6C27.7225 40.8474 22.3925 42.0073 17.0002 42C11.4282 42 6.13419 40.784 1.37619 38.6C1.11116 38.4783 0.887343 38.2821 0.732116 38.0352C0.57689 37.7883 0.496989 37.5016 0.502192 37.21Z" fill="#2752E7"/>
</svg>
