<svg width="631" height="716" viewBox="0 0 631 716" fill="none" xmlns="http://www.w3.org/2000/svg">
<g filter="url(#filter0_f_2103_857)">
<ellipse cx="366.5" cy="546.5" rx="150.5" ry="69.5" fill="#101010"/>
</g>
<g clip-path="url(#clip0_2103_857)" filter="url(#filter1_f_2103_857)">
<path d="M538.357 623.964C497.879 642.267 449.853 625.021 430.555 585.049C411.257 545.076 429.161 499.355 469.648 481.048C510.134 462.742 558.498 480.134 577.775 520.063C597.053 559.992 578.843 605.657 538.357 623.964Z" fill="url(#paint0_linear_2103_857)"/>
<path d="M540.131 614.901C499.653 633.204 451.627 615.958 432.329 575.986C413.031 536.013 430.935 490.293 471.401 471.964C511.866 453.635 560.255 471.036 579.545 510.992C598.835 550.947 580.613 596.607 540.131 614.901Z" fill="url(#paint1_linear_2103_857)"/>
<path d="M433.188 575.572C428.758 566.575 426.189 556.777 425.636 546.763C425.083 536.749 426.557 526.724 429.97 517.29C437.106 497.603 451.974 481.835 471.802 472.839C511.772 454.792 559.689 472.079 578.682 511.419C583.086 520.365 585.637 530.109 586.183 540.066C586.729 550.024 585.258 559.99 581.858 569.369C574.681 589.128 559.692 604.998 539.739 614.022C520.453 622.727 498.537 623.581 478.644 616.402C458.75 609.223 442.445 594.577 433.188 575.572Z" fill="url(#paint2_linear_2103_857)"/>
<g filter="url(#filter2_d_2103_857)">
<path d="M575.889 564.803C579.031 556.29 580.41 547.229 579.944 538.17C579.477 529.111 577.173 520.242 573.172 512.102C555.832 476.185 511.741 460.555 474.87 477.224C456.577 485.499 442.853 499.936 436.227 517.891C433.064 526.463 431.678 535.588 432.153 544.71C432.628 553.832 434.954 562.761 438.99 570.954C447.403 588.369 462.39 601.732 480.66 608.107C499.021 614.658 519.219 613.802 536.971 605.721C555.402 597.378 569.232 582.869 575.889 564.803ZM534.47 600.186C518.169 607.606 499.623 608.393 482.761 602.381C465.997 596.527 452.245 584.264 444.524 568.282C440.843 560.819 438.718 552.685 438.28 544.374C437.842 536.063 439.098 527.749 441.974 519.935C448.03 503.549 460.596 490.344 477.367 482.75C511.238 467.465 551.717 481.794 567.639 514.774C571.278 522.181 573.374 530.25 573.8 538.493C574.226 546.736 572.973 554.981 570.117 562.728C564.046 579.239 551.384 592.554 534.47 600.186Z" fill="url(#paint3_linear_2103_857)"/>
<path d="M439.858 570.535C435.881 562.461 433.589 553.662 433.121 544.673C432.653 535.683 434.019 526.691 437.135 518.243C443.667 500.515 457.216 486.291 475.262 478.103C511.649 461.604 555.19 477.072 572.305 512.521C576.246 520.551 578.511 529.299 578.964 538.233C579.416 547.167 578.046 556.102 574.937 564.493C568.365 582.294 554.745 596.68 536.527 604.867C519.011 612.83 499.087 613.669 480.974 607.208C462.946 600.912 448.158 587.723 439.858 570.535ZM568.506 514.355C552.358 480.908 511.297 466.347 476.966 481.875C459.965 489.57 447.215 502.969 441.065 519.605C438.147 527.539 436.872 535.983 437.318 544.422C437.763 552.862 439.92 561.122 443.656 568.701C451.484 584.919 465.436 597.364 482.446 603.302C499.534 609.397 518.33 608.604 534.853 601.091C552.006 593.333 564.852 579.844 571.055 563.098C573.957 555.222 575.228 546.84 574.79 538.461C574.352 530.082 572.214 521.881 568.506 514.355Z" fill="url(#paint4_linear_2103_857)"/>
<path d="M575.646 566.715C577.533 561.607 578.79 556.289 579.39 550.878C578.728 555.632 577.554 560.301 575.889 564.803C569.232 582.869 555.402 597.378 536.971 605.72C519.219 613.802 499.021 614.658 480.66 608.107C462.39 601.732 447.403 588.369 438.99 570.954C433.359 559.428 431.098 546.545 432.469 533.788C430.64 547.15 432.829 560.751 438.756 572.862C447.167 590.284 462.153 603.654 480.425 610.037C498.789 616.576 518.983 615.72 536.737 607.65C555.156 599.281 568.985 584.751 575.646 566.715Z" fill="url(#paint5_linear_2103_857)"/>
<path d="M441.74 521.843C447.792 505.448 460.344 492.261 477.124 484.662C511.004 469.373 551.517 483.685 567.435 516.657C572.504 527.043 574.544 538.647 573.324 550.142C574.989 538.048 573.009 525.734 567.639 514.774C551.716 481.794 511.221 467.431 477.323 482.771C460.596 490.344 448.03 503.549 441.973 519.935C440.24 524.606 439.083 529.47 438.528 534.421C439.15 530.127 440.226 525.911 441.74 521.843Z" fill="url(#paint6_linear_2103_857)"/>
</g>
<g filter="url(#filter3_d_2103_857)">
<path d="M455.049 524.201C455.034 524.536 455.106 524.869 455.259 525.168L487.263 589.042C487.503 589.512 487.917 589.87 488.416 590.041C488.916 590.212 489.463 590.183 489.941 589.96L504.001 583.483C504.374 583.307 504.685 583.023 504.895 582.668C505.105 582.313 505.204 581.904 505.179 581.493L505.217 577.916C505.229 577.582 505.154 577.25 504.998 576.953L472.949 512.984C472.709 512.511 472.294 512.151 471.792 511.98C471.29 511.809 470.74 511.841 470.261 512.07L456.252 518.651C455.878 518.825 455.565 519.109 455.354 519.464C455.144 519.819 455.046 520.23 455.074 520.641L455.049 524.201Z" fill="url(#paint7_linear_2103_857)"/>
<path d="M530.986 566.074C530.998 565.739 530.926 565.406 530.775 565.107L498.526 500.946C498.287 500.473 497.872 500.112 497.369 499.941C496.867 499.77 496.318 499.803 495.839 500.031L481.778 506.638C481.405 506.814 481.093 507.098 480.883 507.453C480.673 507.807 480.574 508.217 480.6 508.628L480.562 512.205C480.549 512.539 480.625 512.871 480.78 513.167L512.88 577.241C513.12 577.709 513.531 578.066 514.029 578.238C514.527 578.41 515.071 578.383 515.55 578.163L529.748 571.619C530.122 571.446 530.435 571.164 530.646 570.811C530.857 570.457 530.956 570.048 530.93 569.637L530.986 566.074Z" fill="url(#paint8_linear_2103_857)"/>
<path d="M506.238 500.128C506.23 500.463 506.302 500.795 506.448 501.095L538.839 565.285C539.079 565.752 539.49 566.109 539.987 566.279C540.484 566.449 541.028 566.421 541.505 566.199L555.504 559.75C555.878 559.576 556.191 559.293 556.402 558.938C556.612 558.583 556.71 558.172 556.682 557.76L556.72 554.184C556.735 553.849 556.663 553.515 556.51 553.217L523.93 488.991C523.691 488.518 523.276 488.159 522.774 487.99C522.272 487.82 521.724 487.855 521.247 488.085L507.446 494.566C507.07 494.741 506.757 495.026 506.548 495.383C506.338 495.74 506.242 496.152 506.272 496.565L506.238 500.128Z" fill="url(#paint9_linear_2103_857)"/>
<path d="M504.027 579.506L489.968 585.983C489.49 586.206 488.944 586.234 488.445 586.062C487.947 585.89 487.536 585.531 487.298 585.061L455.299 521.195C455.177 520.953 455.106 520.689 455.089 520.418C455.072 520.148 455.109 519.876 455.199 519.62C455.29 519.365 455.43 519.13 455.613 518.929C455.796 518.729 456.017 518.567 456.264 518.454L470.268 511.863C470.747 511.635 471.297 511.602 471.799 511.773C472.301 511.944 472.716 512.305 472.956 512.778L505.009 576.756C505.13 577 505.201 577.266 505.216 577.537C505.232 577.809 505.193 578.082 505.101 578.338C505.01 578.595 504.867 578.831 504.683 579.031C504.498 579.232 504.275 579.393 504.027 579.506Z" fill="url(#paint10_linear_2103_857)"/>
<path d="M529.787 567.646L515.585 574.182C515.106 574.408 514.559 574.438 514.059 574.267C513.558 574.095 513.145 573.735 512.906 573.264L480.811 509.199C480.694 508.957 480.627 508.694 480.613 508.426C480.599 508.158 480.638 507.889 480.729 507.637C480.82 507.384 480.961 507.151 481.143 506.953C481.325 506.755 481.544 506.596 481.789 506.483L495.854 499.864C496.334 499.638 496.882 499.607 497.383 499.777C497.885 499.948 498.3 500.307 498.542 500.778L530.782 564.922C530.898 565.166 530.965 565.43 530.978 565.7C530.991 565.969 530.949 566.239 530.857 566.492C530.764 566.746 530.622 566.979 530.438 567.177C530.255 567.375 530.033 567.534 529.787 567.646Z" fill="url(#paint11_linear_2103_857)"/>
<path d="M555.534 555.782L541.536 562.23C541.059 562.452 540.515 562.481 540.018 562.311C539.521 562.14 539.109 561.784 538.87 561.316L506.492 497.132C506.37 496.889 506.299 496.624 506.282 496.353C506.264 496.082 506.301 495.81 506.391 495.554C506.481 495.297 506.621 495.062 506.803 494.86C506.986 494.659 507.206 494.496 507.453 494.381L521.25 487.891C521.727 487.672 522.27 487.644 522.766 487.814C523.263 487.985 523.674 488.34 523.915 488.805L556.495 553.031C556.615 553.274 556.686 553.539 556.703 553.81C556.719 554.08 556.682 554.352 556.592 554.608C556.503 554.864 556.363 555.1 556.181 555.301C556 555.503 555.78 555.666 555.534 555.782Z" fill="url(#paint12_linear_2103_857)"/>
<path d="M456.144 520.755C456.084 520.629 456.049 520.492 456.042 520.352C456.035 520.212 456.056 520.072 456.104 519.941C456.153 519.805 456.228 519.681 456.326 519.575C456.423 519.469 456.542 519.384 456.673 519.324L470.678 512.734C470.931 512.615 471.22 512.598 471.485 512.687C471.749 512.777 471.969 512.966 472.097 513.214L504.146 577.183C504.209 577.311 504.246 577.451 504.254 577.594C504.262 577.737 504.242 577.88 504.194 578.014C504.147 578.151 504.072 578.276 503.974 578.382C503.877 578.488 503.758 578.573 503.626 578.631L489.567 585.109C489.316 585.227 489.03 585.243 488.767 585.155C488.505 585.066 488.288 584.879 488.161 584.633L456.144 520.755Z" fill="url(#paint13_linear_2103_857)"/>
<path d="M481.666 508.754C481.545 508.499 481.531 508.206 481.626 507.94C481.673 507.806 481.746 507.682 481.843 507.577C481.939 507.471 482.056 507.387 482.186 507.328L496.251 500.708C496.504 500.589 496.793 500.572 497.058 500.662C497.323 500.751 497.542 500.94 497.67 501.188L529.907 565.323C529.969 565.452 530.006 565.591 530.014 565.734C530.023 565.877 530.003 566.02 529.955 566.155C529.851 566.429 529.644 566.651 529.378 566.775L515.184 573.307C514.933 573.429 514.645 573.447 514.381 573.359C514.117 573.271 513.897 573.084 513.77 572.836L481.666 508.754Z" fill="url(#paint14_linear_2103_857)"/>
<path d="M507.343 496.678C507.282 496.553 507.246 496.417 507.238 496.278C507.229 496.139 507.248 496 507.294 495.868C507.397 495.597 507.601 495.377 507.863 495.252L521.664 488.771C521.911 488.651 522.196 488.633 522.457 488.721C522.717 488.809 522.933 488.996 523.057 489.241L555.636 553.467C555.7 553.596 555.738 553.735 555.746 553.878C555.754 554.021 555.733 554.164 555.685 554.299C555.636 554.434 555.561 554.559 555.463 554.665C555.365 554.77 555.247 554.856 555.116 554.915L541.118 561.364C540.868 561.485 540.58 561.502 540.317 561.414C540.054 561.325 539.837 561.136 539.712 560.889L507.343 496.678Z" fill="url(#paint15_linear_2103_857)"/>
</g>
</g>
<g filter="url(#filter4_f_2103_857)">
<ellipse cx="472" cy="527.5" rx="59" ry="69.5" fill="#101010"/>
</g>
<g clip-path="url(#clip1_2103_857)">
<path d="M535.451 393.11C510.322 518.246 389.586 601.416 263.961 579.457C138.336 557.497 61.6486 439.087 86.7828 313.924C111.917 188.761 233.562 105.047 359.051 126.983C484.54 148.919 560.586 267.947 535.451 393.11Z" fill="url(#paint16_linear_2103_857)"/>
<path d="M517.276 373.78C492.147 498.916 371.411 582.086 245.786 560.127C120.161 538.167 43.4734 419.757 68.5212 294.607C93.5689 169.457 215.278 85.6987 340.848 107.649C466.419 129.598 542.433 248.649 517.276 373.78Z" fill="url(#paint17_linear_2103_857)"/>
<path d="M246.257 557.428C217.838 552.69 190.667 542.262 166.371 526.769C142.075 511.275 121.153 491.035 104.856 467.258C70.8756 417.609 58.996 356.484 71.235 295.138C96.1106 171.615 216.762 88.7672 340.399 110.379C368.656 115.095 395.67 125.472 419.822 140.887C443.974 156.303 464.766 176.44 480.955 200.092C515.038 249.956 526.95 311.536 514.567 373.223C502.559 432.818 467.82 485.392 417.725 519.784C367.63 554.176 306.123 567.679 246.257 557.428Z" fill="url(#paint18_linear_2103_857)"/>
<g filter="url(#filter5_d_2103_857)">
<path d="M460.296 206.369C445.697 184.768 426.864 166.363 404.941 152.269C383.017 138.176 358.46 128.688 332.76 124.381C219.879 104.65 109.509 181.344 86.61 295.325C75.264 351.884 85.9514 408.108 116.746 453.662C131.45 475.411 150.42 493.939 172.503 508.12C194.587 522.3 219.322 531.836 245.206 536.148C299.948 545.705 356.249 533.127 401.747 501.177C447.809 469.306 479.663 420.737 490.556 365.767C501.978 308.772 491.298 252.183 460.296 206.369ZM473.448 362.327C463.444 412.803 434.197 457.403 391.906 486.675C350.147 515.986 298.482 527.523 248.246 518.757C224.661 514.839 202.119 506.164 181.989 493.258C161.86 480.352 144.563 463.484 131.149 443.679C103.058 402.081 93.305 350.627 103.69 298.76C124.791 194.101 226.071 123.654 329.72 141.772C353.104 145.694 375.449 154.326 395.398 167.147C415.348 179.968 432.489 196.711 445.78 216.36C474.137 258.201 483.987 310.065 473.448 362.327Z" fill="url(#paint19_linear_2103_857)"/>
<path d="M245.683 533.422C220.176 529.169 195.801 519.771 174.039 505.797C152.277 491.823 133.582 473.565 119.09 452.133C88.6678 407.178 78.1834 351.72 89.319 295.883C111.802 183.318 220.874 107.632 332.283 127.107C357.626 131.368 381.838 140.743 403.445 154.661C425.053 168.579 443.607 186.75 457.978 208.07C488.504 253.239 499.248 309.137 487.818 365.372C477.045 419.593 445.612 467.495 400.175 498.935C355.266 530.454 299.705 542.857 245.683 533.422ZM330.196 139.046C225.077 120.671 122.281 192.088 100.977 298.229C90.4401 350.8 100.342 403.011 128.854 445.244C142.481 465.352 160.047 482.478 180.489 495.584C200.93 508.689 223.82 517.5 247.77 521.483C298.737 530.398 351.162 518.698 393.528 488.953C436.392 459.292 466.044 414.1 476.202 362.948C486.847 309.919 476.899 257.335 448.216 214.791C434.701 194.818 417.271 177.805 396.983 164.784C376.695 151.763 353.972 143.006 330.196 139.046Z" fill="url(#paint20_linear_2103_857)"/>
<path d="M464.352 210.14C455.593 197.177 445.29 185.329 433.67 174.859C443.653 184.372 452.581 194.936 460.297 206.369C491.298 252.183 501.978 308.772 490.556 365.767C479.663 420.737 447.809 469.306 401.747 501.177C356.249 533.127 299.948 545.705 245.206 536.148C208.872 529.973 175.02 513.656 147.546 489.075C175.663 515.738 211.071 533.427 249.267 539.891C304.02 549.463 360.337 536.899 405.858 504.957C451.896 473.064 483.743 424.505 494.666 369.547C506.007 312.538 495.277 255.912 464.352 210.14Z" fill="url(#paint21_linear_2103_857)"/>
<path d="M135.209 447.422C107.091 405.82 97.3561 354.425 107.746 302.531C128.852 197.844 230.151 127.289 333.772 145.402C366.504 150.982 397.004 165.668 421.785 187.782C396.351 163.626 364.298 147.608 329.72 141.772C226.072 123.654 124.683 194.081 103.667 298.896C93.3051 350.627 103.058 402.081 131.149 443.679C139.142 455.553 148.555 466.405 159.178 475.995C150.199 467.348 142.164 457.77 135.209 447.422Z" fill="url(#paint22_linear_2103_857)"/>
</g>
<g filter="url(#filter6_d_2103_857)">
<path d="M163.017 420.316C163.773 420.914 164.672 421.303 165.626 421.446L368.322 453.815C369.821 454.041 371.35 453.677 372.587 452.798C373.824 451.919 374.673 450.595 374.955 449.104L383.402 405.438C383.616 404.272 383.476 403.07 383 401.985C382.525 400.9 381.735 399.983 380.733 399.353L372.45 393.27C371.69 392.681 370.789 392.301 369.836 392.167L166.841 359.745C165.336 359.511 163.799 359.876 162.558 360.762C161.318 361.647 160.473 362.983 160.203 364.484L152.083 408.207C151.861 409.373 151.997 410.578 152.474 411.665C152.95 412.751 153.745 413.667 154.752 414.292L163.017 420.316Z" fill="url(#paint23_linear_2103_857)"/>
<path d="M388.003 313.288C387.243 312.697 386.345 312.308 385.394 312.158L181.615 279.88C180.11 279.646 178.573 280.011 177.332 280.897C176.092 281.782 175.247 283.118 174.977 284.619L166.829 328.506C166.614 329.671 166.754 330.874 167.23 331.959C167.706 333.043 168.496 333.96 169.498 334.591L177.78 340.673C178.541 341.262 179.442 341.643 180.394 341.776L383.716 374.255C385.211 374.481 386.735 374.119 387.971 373.246C389.206 372.373 390.056 371.057 390.345 369.571L398.868 325.469C399.091 324.307 398.959 323.104 398.487 322.019C398.016 320.934 397.228 320.017 396.226 319.389L388.003 313.288Z" fill="url(#paint24_linear_2103_857)"/>
<path d="M192.635 260.513C193.402 261.093 194.296 261.48 195.243 261.643L399.324 293.637C400.817 293.862 402.338 293.499 403.569 292.624C404.8 291.75 405.644 290.432 405.925 288.948L414.339 245.473C414.561 244.307 414.425 243.102 413.948 242.015C413.472 240.929 412.677 240.013 411.67 239.388L403.387 233.305C402.631 232.707 401.732 232.318 400.778 232.175L196.295 200.56C194.792 200.327 193.257 200.693 192.021 201.58C190.785 202.467 189.946 203.804 189.684 205.304L181.678 248.373C181.458 249.542 181.597 250.751 182.079 251.838C182.561 252.926 183.361 253.841 184.375 254.462L192.635 260.513Z" fill="url(#paint25_linear_2103_857)"/>
<path d="M374.165 398.711L365.719 442.377C365.437 443.866 364.588 445.187 363.351 446.061C362.114 446.935 360.586 447.294 359.09 447.061L156.422 414.696C155.653 414.573 154.916 414.297 154.256 413.883C153.596 413.469 153.026 412.927 152.58 412.288C152.134 411.649 151.821 410.927 151.66 410.164C151.498 409.402 151.492 408.614 151.641 407.849L159.733 364.121C160.003 362.62 160.848 361.284 162.088 360.399C163.329 359.513 164.866 359.149 166.371 359.382L369.394 391.809C370.166 391.936 370.905 392.218 371.566 392.636C372.227 393.055 372.797 393.603 373.242 394.247C373.687 394.891 373.998 395.618 374.157 396.385C374.316 397.152 374.318 397.943 374.165 398.711Z" fill="url(#paint26_linear_2103_857)"/>
<path d="M389.664 318.719L381.113 362.817C380.838 364.312 379.991 365.64 378.752 366.52C377.513 367.4 375.981 367.762 374.48 367.528L171.185 335.054C170.425 334.921 169.699 334.638 169.049 334.221C168.4 333.804 167.84 333.262 167.402 332.625C166.965 331.989 166.658 331.272 166.501 330.516C166.344 329.76 166.338 328.979 166.486 328.221L174.612 284.302C174.888 282.805 175.735 281.473 176.973 280.589C178.212 279.705 179.746 279.337 181.25 279.564L384.974 311.832C385.737 311.969 386.465 312.257 387.116 312.679C387.767 313.101 388.327 313.648 388.764 314.29C389.2 314.931 389.505 315.653 389.659 316.414C389.814 317.174 389.815 317.958 389.664 318.719Z" fill="url(#paint27_linear_2103_857)"/>
<path d="M405.13 238.75L396.716 282.225C396.435 283.71 395.591 285.027 394.36 285.902C393.129 286.776 391.608 287.139 390.115 286.915L186.066 254.898C185.296 254.775 184.558 254.498 183.897 254.085C183.236 253.671 182.664 253.129 182.215 252.49C181.767 251.851 181.451 251.129 181.287 250.365C181.123 249.602 181.113 248.814 181.258 248.046L189.237 204.973C189.524 203.492 190.37 202.178 191.599 201.305C192.828 200.432 194.346 200.066 195.838 200.284L400.322 231.898C401.09 232.025 401.826 232.304 402.485 232.719C403.145 233.133 403.715 233.676 404.163 234.314C404.611 234.952 404.927 235.673 405.093 236.434C405.259 237.196 405.271 237.983 405.13 238.75Z" fill="url(#paint28_linear_2103_857)"/>
<path d="M156.812 411.984C156.416 411.914 156.038 411.765 155.7 411.547C155.362 411.329 155.071 411.045 154.845 410.713C154.609 410.372 154.445 409.988 154.361 409.582C154.278 409.177 154.277 408.758 154.359 408.352L162.452 364.625C162.597 363.835 163.043 363.132 163.695 362.664C164.347 362.197 165.156 362.001 165.949 362.118L368.945 394.54C369.35 394.608 369.737 394.757 370.084 394.976C370.431 395.196 370.731 395.483 370.966 395.82C371.205 396.159 371.371 396.543 371.455 396.949C371.538 397.355 371.537 397.774 371.452 398.18L363.005 441.846C362.861 442.629 362.42 443.325 361.773 443.789C361.127 444.252 360.326 444.446 359.54 444.331L156.812 411.984Z" fill="url(#paint29_linear_2103_857)"/>
<path d="M171.58 332.314C170.782 332.167 170.075 331.71 169.613 331.043C169.377 330.708 169.212 330.328 169.128 329.927C169.043 329.526 169.042 329.112 169.123 328.71L177.249 284.791C177.394 284.002 177.839 283.299 178.492 282.831C179.144 282.364 179.952 282.168 180.746 282.285L384.443 314.548C384.848 314.617 385.235 314.765 385.582 314.985C385.929 315.205 386.229 315.492 386.464 315.828C386.929 316.531 387.101 317.388 386.945 318.216L378.399 362.286C378.262 363.075 377.822 363.779 377.174 364.248C376.526 364.717 375.721 364.914 374.929 364.798L171.58 332.314Z" fill="url(#paint30_linear_2103_857)"/>
<path d="M186.434 252.154C186.04 252.086 185.663 251.942 185.324 251.728C184.986 251.515 184.693 251.237 184.462 250.91C184.003 250.215 183.829 249.37 183.977 248.55L191.982 205.481C192.118 204.702 192.554 204.008 193.196 203.547C193.839 203.087 194.635 202.897 195.416 203.019L399.899 234.633C400.305 234.699 400.694 234.846 401.041 235.066C401.389 235.286 401.688 235.575 401.921 235.914C402.155 236.255 402.319 236.639 402.402 237.045C402.486 237.45 402.487 237.868 402.406 238.274L393.993 281.749C393.856 282.535 393.416 283.236 392.768 283.701C392.12 284.165 391.315 284.357 390.528 284.234L186.434 252.154Z" fill="url(#paint31_linear_2103_857)"/>
</g>
</g>
<g filter="url(#filter7_f_2103_857)">
<ellipse cx="180" cy="168" rx="80" ry="68" fill="#101010"/>
</g>
<g clip-path="url(#clip2_2103_857)" filter="url(#filter8_f_2103_857)">
<path d="M154.062 39.2781C194.373 57.9464 212.715 105.564 195.08 146.297C177.445 187.031 131.141 203.368 90.8217 184.696C50.5023 166.024 32.0499 118.055 49.666 77.3653C67.282 36.6759 113.743 20.6059 154.062 39.2781Z" fill="url(#paint32_linear_2103_857)"/>
<path d="M146.044 43.8593C186.355 62.5276 204.697 110.145 187.062 150.879C169.427 191.612 123.123 207.949 82.801 189.308C42.4789 170.666 24.0165 122.671 41.644 81.9553C59.2715 41.2394 105.737 25.1821 146.044 43.8593Z" fill="url(#paint33_linear_2103_857)"/>
<path d="M186.187 150.5C182.275 159.733 176.539 168.082 169.322 175.047C162.105 182.011 153.556 187.448 144.185 191.033C124.621 198.501 102.969 197.557 83.201 188.432C43.4157 169.981 25.1756 122.418 42.5317 82.3291C46.4229 73.1486 52.1288 64.8488 59.3076 57.9268C66.4864 51.0048 74.9905 45.6031 84.3103 42.0452C103.955 34.56 125.763 35.5298 145.635 44.7308C164.83 53.6353 179.802 69.6623 187.373 89.4099C194.944 109.158 194.519 131.071 186.187 150.5Z" fill="url(#paint34_linear_2103_857)"/>
<g filter="url(#filter9_d_2103_857)">
<path d="M84.757 49.5468C76.2607 52.7337 68.5019 57.6127 61.9515 63.8878C55.401 70.163 50.1954 77.7036 46.6504 86.052C30.8043 122.653 47.7971 166.237 84.5133 183.244C102.734 191.678 122.631 192.627 140.549 185.904C149.104 182.695 156.916 177.779 163.509 171.457C170.101 165.134 175.338 157.537 178.899 149.127C186.58 131.376 186.896 111.3 179.778 93.3065C172.732 75.1287 158.882 60.4031 141.162 52.2518C122.8 43.757 102.781 42.7754 84.757 49.5468ZM138.608 57.7624C154.879 65.2478 167.598 78.7687 174.07 95.4595C180.599 111.973 180.308 130.396 173.261 146.686C170.019 154.35 165.252 161.275 159.249 167.039C153.246 172.804 146.133 177.288 138.34 180.219C121.98 186.348 103.774 185.47 87.0631 177.742C53.3556 162.1 37.7392 122.101 52.2893 88.4934C55.5158 80.8975 60.2523 74.0363 66.2118 68.3257C72.1713 62.6151 79.2298 58.1739 86.9595 55.2712C103.423 49.0723 121.777 49.951 138.608 57.7624Z" fill="url(#paint35_linear_2103_857)"/>
<path d="M178.016 148.745C174.505 157.032 169.344 164.518 162.847 170.748C156.35 176.979 148.653 181.823 140.222 184.987C122.537 191.632 102.915 190.676 84.9221 182.372C48.6514 165.621 31.8946 122.559 47.5342 86.4347C51.0348 78.2036 56.174 70.7708 62.6395 64.5881C69.105 58.4055 76.7618 53.602 85.1446 50.4696C102.911 43.8071 122.702 44.7106 140.806 53.1463C158.282 61.1961 171.941 75.7251 178.892 93.6567C185.912 111.416 185.597 131.228 178.016 148.745ZM51.4055 88.1107C36.649 122.195 52.4707 162.787 86.6632 178.617C103.6 186.453 122.074 187.343 138.684 181.123C146.596 178.144 153.819 173.59 159.915 167.736C166.01 161.882 170.851 154.851 174.144 147.069C181.301 130.543 181.599 111.85 174.973 95.0954C168.416 78.1792 155.529 64.4735 139.042 56.8809C121.959 48.9712 103.355 48.0674 86.6263 54.3196C78.769 57.2712 71.5952 61.7887 65.5405 67.5976C59.4859 73.4064 54.6768 80.3854 51.4055 88.1107Z" fill="url(#paint36_linear_2103_857)"/>
<path d="M86.3625 48.4804C81.2639 50.392 76.4174 52.9168 71.9301 55.9992C75.9604 53.393 80.261 51.2297 84.7569 49.5468C102.78 42.7754 122.8 43.7569 141.162 52.2518C158.881 60.4031 172.732 75.1287 179.778 93.3064C186.896 111.3 186.58 131.376 178.899 149.127C173.858 160.923 165.587 171.055 155.036 178.357C166.344 171.006 175.206 160.459 180.496 148.057C188.183 130.304 188.505 110.223 181.391 92.2224C174.336 74.0507 160.488 59.3282 142.775 51.1677C124.402 42.6994 104.366 41.7317 86.3625 48.4804Z" fill="url(#paint37_linear_2103_857)"/>
<path d="M139.937 179.149C123.573 185.286 105.388 184.407 88.6689 176.676C54.9525 161.03 39.3008 121.015 53.847 87.4165C58.394 76.7917 65.8417 67.662 75.3388 61.0712C65.0976 67.7174 57.0729 77.2644 52.2894 88.4932C37.7393 122.101 53.3404 162.135 87.1074 177.761C103.774 185.469 121.98 186.348 138.34 180.219C143.008 178.478 147.446 176.174 151.554 173.358C147.898 175.694 144.004 177.635 139.937 179.149Z" fill="url(#paint38_linear_2103_857)"/>
</g>
<g filter="url(#filter10_d_2103_857)">
<path d="M133.021 167.536C133.285 167.328 133.49 167.056 133.616 166.745L161.034 100.772C161.232 100.283 161.233 99.7362 161.036 99.2462C160.839 98.7562 160.46 98.3614 159.978 98.1448L145.885 91.7395C145.509 91.5723 145.09 91.5219 144.684 91.5948C144.279 91.6678 143.904 91.8607 143.609 92.1486L140.878 94.4577C140.617 94.6673 140.415 94.9413 140.292 95.2527L112.832 161.322C112.631 161.813 112.63 162.362 112.828 162.854C113.027 163.346 113.411 163.74 113.897 163.954L128.035 170.253C128.412 170.423 128.831 170.475 129.237 170.402C129.644 170.329 130.018 170.134 130.312 169.844L133.021 167.536Z" fill="url(#paint39_linear_2103_857)"/>
<path d="M115.071 82.6981C114.81 82.9073 114.605 83.1795 114.477 83.4892L87.0022 149.835C86.8008 150.326 86.7994 150.876 86.9984 151.367C87.1973 151.859 87.5808 152.254 88.0669 152.467L102.258 158.789C102.635 158.956 103.054 159.007 103.459 158.934C103.865 158.861 104.24 158.668 104.534 158.38L107.266 156.071C107.527 155.861 107.729 155.587 107.851 155.276L135.357 89.1005C135.555 88.6128 135.556 88.0676 135.361 87.5786C135.166 87.0897 134.79 86.6949 134.31 86.4767L120.076 80.0102C119.701 79.84 119.284 79.7872 118.878 79.8587C118.472 79.9301 118.098 80.1225 117.804 80.4105L115.071 82.6981Z" fill="url(#paint40_linear_2103_857)"/>
<path d="M81.3426 144.533C81.6011 144.32 81.8049 144.049 81.9371 143.742L109.34 77.2703C109.538 76.7835 109.538 76.2391 109.342 75.7515C109.146 75.2639 108.769 74.871 108.289 74.6554L94.2588 68.2769C93.8824 68.107 93.4633 68.0552 93.057 68.1282C92.6506 68.2013 92.276 68.3958 91.9827 68.686L89.2513 70.9951C88.9875 71.2025 88.7826 71.4752 88.6569 71.7863L61.3491 138.425C61.1481 138.915 61.1475 139.464 61.3473 139.954C61.5471 140.445 61.9315 140.837 62.4177 141.048L76.344 147.255C76.7217 147.425 77.1421 147.476 77.5493 147.401C77.9565 147.326 78.3313 147.13 78.6239 146.837L81.3426 144.533Z" fill="url(#paint41_linear_2103_857)"/>
<path d="M142.858 94.319L156.951 100.724C157.432 100.941 157.81 101.335 158.005 101.825C158.201 102.314 158.198 102.861 157.998 103.348L130.584 169.312C130.48 169.562 130.326 169.789 130.133 169.978C129.939 170.168 129.709 170.317 129.457 170.416C129.204 170.515 128.934 170.562 128.663 170.555C128.392 170.548 128.125 170.486 127.878 170.373L113.736 164.083C113.25 163.87 112.866 163.475 112.667 162.984C112.468 162.492 112.47 161.942 112.671 161.452L140.135 95.3733C140.241 95.1223 140.396 94.8952 140.591 94.7055C140.787 94.5158 141.019 94.3673 141.273 94.2689C141.527 94.1706 141.798 94.1243 142.071 94.1329C142.343 94.1415 142.611 94.2048 142.858 94.319Z" fill="url(#paint42_linear_2103_857)"/>
<path d="M117.045 82.5769L131.275 89.0522C131.758 89.2669 132.139 89.6615 132.336 90.1522C132.533 90.6428 132.531 91.1909 132.331 91.6798L104.828 157.846C104.722 158.093 104.567 158.316 104.373 158.502C104.179 158.688 103.95 158.833 103.699 158.929C103.448 159.026 103.181 159.071 102.912 159.063C102.643 159.055 102.379 158.993 102.134 158.882L87.9301 152.565C87.4457 152.35 87.0638 151.955 86.8651 151.464C86.6664 150.973 86.6665 150.424 86.8654 149.933L114.333 83.6047C114.441 83.3575 114.598 83.1344 114.793 82.9484C114.989 82.7625 115.22 82.6174 115.472 82.5217C115.725 82.426 115.994 82.3816 116.264 82.3911C116.534 82.4005 116.799 82.4637 117.045 82.5769Z" fill="url(#paint43_linear_2103_857)"/>
<path d="M91.2357 70.8476L105.266 77.2261C105.746 77.4417 106.123 77.8346 106.319 78.3222C106.515 78.8098 106.514 79.3542 106.317 79.8411L78.9089 146.3C78.8046 146.551 78.6511 146.778 78.4573 146.968C78.2636 147.158 78.0336 147.308 77.781 147.408C77.5283 147.507 77.2582 147.556 76.9865 147.549C76.7149 147.543 76.4472 147.482 76.1994 147.371L62.2693 141.172C61.7914 140.955 61.4156 140.562 61.2199 140.075C61.0242 139.588 61.0236 139.044 61.2184 138.557L88.5262 71.9184C88.6315 71.6686 88.7857 71.4423 88.9796 71.2528C89.1736 71.0632 89.4034 70.9142 89.6557 70.8145C89.9079 70.7148 90.1776 70.6664 90.4489 70.6721C90.7202 70.6778 90.9877 70.7375 91.2357 70.8476Z" fill="url(#paint44_linear_2103_857)"/>
<path d="M129.697 168.959C129.642 169.087 129.561 169.203 129.459 169.3C129.358 169.396 129.239 169.472 129.108 169.521C128.973 169.574 128.83 169.598 128.686 169.593C128.542 169.589 128.4 169.555 128.269 169.494L114.127 163.204C113.872 163.09 113.67 162.882 113.565 162.624C113.459 162.365 113.459 162.076 113.563 161.816L141.023 95.747C141.079 95.6155 141.161 95.4964 141.263 95.3968C141.366 95.2972 141.487 95.219 141.62 95.1668C141.754 95.1136 141.898 95.0885 142.042 95.0932C142.187 95.0979 142.328 95.1323 142.459 95.1942L156.551 101.599C156.804 101.712 157.004 101.918 157.108 102.174C157.213 102.43 157.214 102.717 157.11 102.974L129.697 168.959Z" fill="url(#paint45_linear_2103_857)"/>
<path d="M103.933 157.49C103.819 157.748 103.607 157.95 103.343 158.052C103.211 158.105 103.069 158.13 102.926 158.126C102.784 158.122 102.643 158.089 102.514 158.029L88.3097 151.712C88.0542 151.598 87.8526 151.391 87.7473 151.132C87.642 150.873 87.6413 150.584 87.7454 150.324L115.209 84.0048C115.265 83.8733 115.347 83.7543 115.449 83.6547C115.552 83.5551 115.673 83.4769 115.806 83.4247C116.082 83.3245 116.386 83.3357 116.653 83.4559L130.875 89.9274C131.13 90.038 131.333 90.2439 131.439 90.5014C131.545 90.7588 131.547 91.0474 131.443 91.3058L103.933 157.49Z" fill="url(#paint46_linear_2103_857)"/>
<path d="M78.0097 145.953C77.9549 146.081 77.8753 146.196 77.7756 146.294C77.6759 146.391 77.558 146.467 77.4287 146.519C77.1562 146.618 76.856 146.608 76.5904 146.492L62.6641 140.284C62.4117 140.175 62.2121 139.971 62.1084 139.716C62.0048 139.461 62.0053 139.176 62.1098 138.922L89.4176 72.2835C89.4727 72.1514 89.5541 72.0319 89.6568 71.9322C89.7595 71.8325 89.8814 71.7546 90.0151 71.7033C90.1495 71.6517 90.2929 71.6276 90.4369 71.6323C90.5809 71.637 90.7225 71.6704 90.8533 71.7307L104.884 78.1092C105.139 78.2195 105.34 78.4253 105.445 78.6824C105.549 78.9395 105.549 79.2272 105.443 79.4838L78.0097 145.953Z" fill="url(#paint47_linear_2103_857)"/>
</g>
</g>
<defs>
<filter id="filter0_f_2103_857" x="116" y="377" width="501" height="339" filterUnits="userSpaceOnUse" color-interpolation-filters="sRGB">
<feFlood flood-opacity="0" result="BackgroundImageFix"/>
<feBlend mode="normal" in="SourceGraphic" in2="BackgroundImageFix" result="shape"/>
<feGaussianBlur stdDeviation="50" result="effect1_foregroundBlur_2103_857"/>
</filter>
<filter id="filter1_f_2103_857" x="388" y="431" width="234.004" height="233.842" filterUnits="userSpaceOnUse" color-interpolation-filters="sRGB">
<feFlood flood-opacity="0" result="BackgroundImageFix"/>
<feBlend mode="normal" in="SourceGraphic" in2="BackgroundImageFix" result="shape"/>
<feGaussianBlur stdDeviation="3" result="effect1_foregroundBlur_2103_857"/>
</filter>
<filter id="filter2_d_2103_857" x="427.841" y="465.549" width="164.191" height="159.84" filterUnits="userSpaceOnUse" color-interpolation-filters="sRGB">
<feFlood flood-opacity="0" result="BackgroundImageFix"/>
<feColorMatrix in="SourceAlpha" type="matrix" values="0 0 0 0 0 0 0 0 0 0 0 0 0 0 0 0 0 0 127 0" result="hardAlpha"/>
<feOffset dx="4" dy="3"/>
<feGaussianBlur stdDeviation="4"/>
<feColorMatrix type="matrix" values="0 0 0 0 0.188235 0 0 0 0 0.188235 0 0 0 0 0.188235 0 0 0 1 0"/>
<feBlend mode="normal" in2="BackgroundImageFix" result="effect1_dropShadow_2103_857"/>
<feBlend mode="normal" in="SourceGraphic" in2="effect1_dropShadow_2103_857" result="shape"/>
</filter>
<filter id="filter3_d_2103_857" x="451.047" y="482.704" width="117.674" height="118.447" filterUnits="userSpaceOnUse" color-interpolation-filters="sRGB">
<feFlood flood-opacity="0" result="BackgroundImageFix"/>
<feColorMatrix in="SourceAlpha" type="matrix" values="0 0 0 0 0 0 0 0 0 0 0 0 0 0 0 0 0 0 127 0" result="hardAlpha"/>
<feOffset dx="4" dy="3"/>
<feGaussianBlur stdDeviation="4"/>
<feColorMatrix type="matrix" values="0 0 0 0 0.188235 0 0 0 0 0.188235 0 0 0 0 0.188235 0 0 0 1 0"/>
<feBlend mode="normal" in2="BackgroundImageFix" result="effect1_dropShadow_2103_857"/>
<feBlend mode="normal" in="SourceGraphic" in2="effect1_dropShadow_2103_857" result="shape"/>
</filter>
<filter id="filter4_f_2103_857" x="313" y="358" width="318" height="339" filterUnits="userSpaceOnUse" color-interpolation-filters="sRGB">
<feFlood flood-opacity="0" result="BackgroundImageFix"/>
<feBlend mode="normal" in="SourceGraphic" in2="BackgroundImageFix" result="shape"/>
<feGaussianBlur stdDeviation="50" result="effect1_foregroundBlur_2103_857"/>
</filter>
<filter id="filter5_d_2103_857" x="78.1946" y="116.287" width="432.874" height="437.738" filterUnits="userSpaceOnUse" color-interpolation-filters="sRGB">
<feFlood flood-opacity="0" result="BackgroundImageFix"/>
<feColorMatrix in="SourceAlpha" type="matrix" values="0 0 0 0 0 0 0 0 0 0 0 0 0 0 0 0 0 0 127 0" result="hardAlpha"/>
<feOffset dx="4" dy="3"/>
<feGaussianBlur stdDeviation="4"/>
<feColorMatrix type="matrix" values="0 0 0 0 0.188235 0 0 0 0 0.188235 0 0 0 0 0.188235 0 0 0 1 0"/>
<feBlend mode="normal" in2="BackgroundImageFix" result="effect1_dropShadow_2103_857"/>
<feBlend mode="normal" in="SourceGraphic" in2="effect1_dropShadow_2103_857" result="shape"/>
</filter>
<filter id="filter6_d_2103_857" x="147.534" y="195.222" width="278.909" height="269.659" filterUnits="userSpaceOnUse" color-interpolation-filters="sRGB">
<feFlood flood-opacity="0" result="BackgroundImageFix"/>
<feColorMatrix in="SourceAlpha" type="matrix" values="0 0 0 0 0 0 0 0 0 0 0 0 0 0 0 0 0 0 127 0" result="hardAlpha"/>
<feOffset dx="4" dy="3"/>
<feGaussianBlur stdDeviation="4"/>
<feColorMatrix type="matrix" values="0 0 0 0 0.188235 0 0 0 0 0.188235 0 0 0 0 0.188235 0 0 0 1 0"/>
<feBlend mode="normal" in2="BackgroundImageFix" result="effect1_dropShadow_2103_857"/>
<feBlend mode="normal" in="SourceGraphic" in2="effect1_dropShadow_2103_857" result="shape"/>
</filter>
<filter id="filter7_f_2103_857" x="0" y="0" width="360" height="336" filterUnits="userSpaceOnUse" color-interpolation-filters="sRGB">
<feFlood flood-opacity="0" result="BackgroundImageFix"/>
<feBlend mode="normal" in="SourceGraphic" in2="BackgroundImageFix" result="shape"/>
<feGaussianBlur stdDeviation="50" result="effect1_foregroundBlur_2103_857"/>
</filter>
<filter id="filter8_f_2103_857" x="3" y="-1" width="230.636" height="230.455" filterUnits="userSpaceOnUse" color-interpolation-filters="sRGB">
<feFlood flood-opacity="0" result="BackgroundImageFix"/>
<feBlend mode="normal" in="SourceGraphic" in2="BackgroundImageFix" result="shape"/>
<feGaussianBlur stdDeviation="3" result="effect1_foregroundBlur_2103_857"/>
</filter>
<filter id="filter9_d_2103_857" x="36.7166" y="39.0356" width="161.786" height="162.303" filterUnits="userSpaceOnUse" color-interpolation-filters="sRGB">
<feFlood flood-opacity="0" result="BackgroundImageFix"/>
<feColorMatrix in="SourceAlpha" type="matrix" values="0 0 0 0 0 0 0 0 0 0 0 0 0 0 0 0 0 0 127 0" result="hardAlpha"/>
<feOffset dx="4" dy="3"/>
<feGaussianBlur stdDeviation="4"/>
<feColorMatrix type="matrix" values="0 0 0 0 0.188235 0 0 0 0 0.188235 0 0 0 0 0.188235 0 0 0 1 0"/>
<feBlend mode="normal" in2="BackgroundImageFix" result="effect1_dropShadow_2103_857"/>
<feBlend mode="normal" in="SourceGraphic" in2="effect1_dropShadow_2103_857" result="shape"/>
</filter>
<filter id="filter10_d_2103_857" x="57.0728" y="63.0962" width="116.11" height="118.459" filterUnits="userSpaceOnUse" color-interpolation-filters="sRGB">
<feFlood flood-opacity="0" result="BackgroundImageFix"/>
<feColorMatrix in="SourceAlpha" type="matrix" values="0 0 0 0 0 0 0 0 0 0 0 0 0 0 0 0 0 0 127 0" result="hardAlpha"/>
<feOffset dx="4" dy="3"/>
<feGaussianBlur stdDeviation="4"/>
<feColorMatrix type="matrix" values="0 0 0 0 0.188235 0 0 0 0 0.188235 0 0 0 0 0.188235 0 0 0 1 0"/>
<feBlend mode="normal" in2="BackgroundImageFix" result="effect1_dropShadow_2103_857"/>
<feBlend mode="normal" in="SourceGraphic" in2="effect1_dropShadow_2103_857" result="shape"/>
</filter>
<linearGradient id="paint0_linear_2103_857" x1="427.35" y1="564.254" x2="581.258" y2="540.757" gradientUnits="userSpaceOnUse">
<stop stop-color="#666666"/>
<stop offset="0.5" stop-color="#1A1A1A"/>
<stop offset="1" stop-color="#666666"/>
</linearGradient>
<linearGradient id="paint1_linear_2103_857" x1="578.064" y1="508.544" x2="435.137" y2="577.548" gradientUnits="userSpaceOnUse">
<stop stop-color="#1A1A1A"/>
<stop offset="0.5" stop-color="#333333"/>
<stop offset="1" stop-color="#4D4D4D"/>
</linearGradient>
<linearGradient id="paint2_linear_2103_857" x1="471.819" y1="472.831" x2="539.951" y2="613.952" gradientUnits="userSpaceOnUse">
<stop stop-color="#4D4D4D"/>
<stop offset="0.5" stop-color="#333333"/>
<stop offset="1" stop-color="#1A1A1A"/>
</linearGradient>
<linearGradient id="paint3_linear_2103_857" x1="441.41" y1="508.711" x2="568.149" y2="573.242" gradientUnits="userSpaceOnUse">
<stop stop-color="#14F195"/>
<stop offset="1" stop-color="#9945FF"/>
</linearGradient>
<linearGradient id="paint4_linear_2103_857" x1="442.261" y1="509.144" x2="567.342" y2="572.829" gradientUnits="userSpaceOnUse">
<stop stop-color="#9945FF"/>
<stop offset="1" stop-color="#14F195"/>
</linearGradient>
<linearGradient id="paint5_linear_2103_857" x1="483.59" y1="509.086" x2="532.227" y2="609.827" gradientUnits="userSpaceOnUse">
<stop stop-color="#1A1A1A"/>
<stop offset="0.5" stop-color="#333333"/>
<stop offset="1" stop-color="#4D4D4D"/>
</linearGradient>
<linearGradient id="paint6_linear_2103_857" x1="481.834" y1="480.572" x2="526.383" y2="572.847" gradientUnits="userSpaceOnUse">
<stop stop-color="#1A1A1A"/>
<stop offset="0.5" stop-color="#333333"/>
<stop offset="1" stop-color="#4D4D4D"/>
</linearGradient>
<linearGradient id="paint7_linear_2103_857" x1="462.927" y1="515.419" x2="497.327" y2="586.672" gradientUnits="userSpaceOnUse">
<stop stop-color="#1A1A1A"/>
<stop offset="0.5" stop-color="#333333"/>
<stop offset="1" stop-color="#4D4D4D"/>
</linearGradient>
<linearGradient id="paint8_linear_2103_857" x1="488.517" y1="503.385" x2="523.014" y2="574.838" gradientUnits="userSpaceOnUse">
<stop stop-color="#1A1A1A"/>
<stop offset="0.5" stop-color="#333333"/>
<stop offset="1" stop-color="#4D4D4D"/>
</linearGradient>
<linearGradient id="paint9_linear_2103_857" x1="514.176" y1="491.317" x2="548.773" y2="562.978" gradientUnits="userSpaceOnUse">
<stop stop-color="#1A1A1A"/>
<stop offset="0.5" stop-color="#333333"/>
<stop offset="1" stop-color="#4D4D4D"/>
</linearGradient>
<linearGradient id="paint10_linear_2103_857" x1="433.137" y1="525.046" x2="559.581" y2="589.431" gradientUnits="userSpaceOnUse">
<stop stop-color="#14F195"/>
<stop offset="1" stop-color="#9945FF"/>
</linearGradient>
<linearGradient id="paint11_linear_2103_857" x1="443.345" y1="505.319" x2="569.79" y2="569.704" gradientUnits="userSpaceOnUse">
<stop stop-color="#14F195"/>
<stop offset="1" stop-color="#9945FF"/>
</linearGradient>
<linearGradient id="paint12_linear_2103_857" x1="453.584" y1="485.523" x2="580.042" y2="549.913" gradientUnits="userSpaceOnUse">
<stop stop-color="#14F195"/>
<stop offset="1" stop-color="#9945FF"/>
</linearGradient>
<linearGradient id="paint13_linear_2103_857" x1="434.411" y1="525.692" x2="557.432" y2="588.34" gradientUnits="userSpaceOnUse">
<stop stop-color="#9945FF"/>
<stop offset="1" stop-color="#14F195"/>
</linearGradient>
<linearGradient id="paint14_linear_2103_857" x1="445.03" y1="506.172" x2="568.064" y2="568.825" gradientUnits="userSpaceOnUse">
<stop stop-color="#9945FF"/>
<stop offset="1" stop-color="#14F195"/>
</linearGradient>
<linearGradient id="paint15_linear_2103_857" x1="455.684" y1="486.593" x2="578.726" y2="549.242" gradientUnits="userSpaceOnUse">
<stop stop-color="#9945FF"/>
<stop offset="1" stop-color="#14F195"/>
</linearGradient>
<linearGradient id="paint16_linear_2103_857" x1="210.062" y1="552.085" x2="413.18" y2="153.538" gradientUnits="userSpaceOnUse">
<stop stop-color="#666666"/>
<stop offset="0.5" stop-color="#1A1A1A"/>
<stop offset="1" stop-color="#666666"/>
</linearGradient>
<linearGradient id="paint17_linear_2103_857" x1="332.654" y1="107.003" x2="254.135" y2="556.193" gradientUnits="userSpaceOnUse">
<stop stop-color="#1A1A1A"/>
<stop offset="0.5" stop-color="#333333"/>
<stop offset="1" stop-color="#4D4D4D"/>
</linearGradient>
<linearGradient id="paint18_linear_2103_857" x1="71.2445" y1="295.083" x2="514.759" y2="372.61" gradientUnits="userSpaceOnUse">
<stop stop-color="#4D4D4D"/>
<stop offset="0.5" stop-color="#333333"/>
<stop offset="1" stop-color="#1A1A1A"/>
</linearGradient>
<linearGradient id="paint19_linear_2103_857" x1="104.009" y1="426.181" x2="467.018" y2="238.573" gradientUnits="userSpaceOnUse">
<stop stop-color="#14F195"/>
<stop offset="1" stop-color="#9945FF"/>
</linearGradient>
<linearGradient id="paint20_linear_2103_857" x1="106.447" y1="424.922" x2="464.701" y2="239.765" gradientUnits="userSpaceOnUse">
<stop stop-color="#9945FF"/>
<stop offset="1" stop-color="#14F195"/>
</linearGradient>
<linearGradient id="paint21_linear_2103_857" x1="175.58" y1="328.378" x2="492.189" y2="383.721" gradientUnits="userSpaceOnUse">
<stop stop-color="#1A1A1A"/>
<stop offset="0.5" stop-color="#333333"/>
<stop offset="1" stop-color="#4D4D4D"/>
</linearGradient>
<linearGradient id="paint22_linear_2103_857" x1="106.095" y1="284.685" x2="396.097" y2="335.378" gradientUnits="userSpaceOnUse">
<stop stop-color="#1A1A1A"/>
<stop offset="0.5" stop-color="#333333"/>
<stop offset="1" stop-color="#4D4D4D"/>
</linearGradient>
<linearGradient id="paint23_linear_2103_857" x1="155.725" y1="387.214" x2="379.66" y2="426.358" gradientUnits="userSpaceOnUse">
<stop stop-color="#1A1A1A"/>
<stop offset="0.5" stop-color="#333333"/>
<stop offset="1" stop-color="#4D4D4D"/>
</linearGradient>
<linearGradient id="paint24_linear_2103_857" x1="170.531" y1="307.326" x2="395.093" y2="346.58" gradientUnits="userSpaceOnUse">
<stop stop-color="#1A1A1A"/>
<stop offset="0.5" stop-color="#333333"/>
<stop offset="1" stop-color="#4D4D4D"/>
</linearGradient>
<linearGradient id="paint25_linear_2103_857" x1="185.376" y1="227.22" x2="410.592" y2="266.588" gradientUnits="userSpaceOnUse">
<stop stop-color="#1A1A1A"/>
<stop offset="0.5" stop-color="#333333"/>
<stop offset="1" stop-color="#4D4D4D"/>
</linearGradient>
<linearGradient id="paint26_linear_2103_857" x1="128.264" y1="472.867" x2="490.436" y2="285.702" gradientUnits="userSpaceOnUse">
<stop stop-color="#14F195"/>
<stop offset="1" stop-color="#9945FF"/>
</linearGradient>
<linearGradient id="paint27_linear_2103_857" x1="99.3373" y1="415.983" x2="461.51" y2="228.818" gradientUnits="userSpaceOnUse">
<stop stop-color="#14F195"/>
<stop offset="1" stop-color="#9945FF"/>
</linearGradient>
<linearGradient id="paint28_linear_2103_857" x1="70.3032" y1="358.91" x2="432.508" y2="171.723" gradientUnits="userSpaceOnUse">
<stop stop-color="#14F195"/>
<stop offset="1" stop-color="#9945FF"/>
</linearGradient>
<linearGradient id="paint29_linear_2103_857" x1="131.906" y1="470.976" x2="484.288" y2="288.889" gradientUnits="userSpaceOnUse">
<stop stop-color="#9945FF"/>
<stop offset="1" stop-color="#14F195"/>
</linearGradient>
<linearGradient id="paint30_linear_2103_857" x1="104.152" y1="413.481" x2="456.567" y2="231.373" gradientUnits="userSpaceOnUse">
<stop stop-color="#9945FF"/>
<stop offset="1" stop-color="#14F195"/>
</linearGradient>
<linearGradient id="paint31_linear_2103_857" x1="76.3188" y1="355.804" x2="428.738" y2="173.668" gradientUnits="userSpaceOnUse">
<stop stop-color="#9945FF"/>
<stop offset="1" stop-color="#14F195"/>
</linearGradient>
<linearGradient id="paint32_linear_2103_857" x1="181.439" y1="162.316" x2="63.0498" y2="61.2022" gradientUnits="userSpaceOnUse">
<stop stop-color="#666666"/>
<stop offset="0.5" stop-color="#1A1A1A"/>
<stop offset="1" stop-color="#666666"/>
</linearGradient>
<linearGradient id="paint33_linear_2103_857" x1="40.7599" y1="84.6762" x2="186.409" y2="147.733" gradientUnits="userSpaceOnUse">
<stop stop-color="#1A1A1A"/>
<stop offset="0.5" stop-color="#333333"/>
<stop offset="1" stop-color="#4D4D4D"/>
</linearGradient>
<linearGradient id="paint34_linear_2103_857" x1="83.1833" y1="188.424" x2="145.444" y2="44.6163" gradientUnits="userSpaceOnUse">
<stop stop-color="#4D4D4D"/>
<stop offset="0.5" stop-color="#333333"/>
<stop offset="1" stop-color="#1A1A1A"/>
</linearGradient>
<linearGradient id="paint35_linear_2103_857" x1="130.214" y1="187.983" x2="96.2023" y2="49.8877" gradientUnits="userSpaceOnUse">
<stop stop-color="#14F195"/>
<stop offset="1" stop-color="#9945FF"/>
</linearGradient>
<linearGradient id="paint36_linear_2103_857" x1="129.986" y1="187.056" x2="96.4178" y2="50.7685" gradientUnits="userSpaceOnUse">
<stop stop-color="#9945FF"/>
<stop offset="1" stop-color="#14F195"/>
</linearGradient>
<linearGradient id="paint37_linear_2103_857" x1="102.926" y1="155.817" x2="147.371" y2="53.1575" gradientUnits="userSpaceOnUse">
<stop stop-color="#1A1A1A"/>
<stop offset="0.5" stop-color="#333333"/>
<stop offset="1" stop-color="#4D4D4D"/>
</linearGradient>
<linearGradient id="paint38_linear_2103_857" x1="82.495" y1="175.785" x2="123.205" y2="81.7526" gradientUnits="userSpaceOnUse">
<stop stop-color="#1A1A1A"/>
<stop offset="0.5" stop-color="#333333"/>
<stop offset="1" stop-color="#4D4D4D"/>
</linearGradient>
<linearGradient id="paint39_linear_2103_857" x1="121.226" y1="167.315" x2="152.662" y2="94.7048" gradientUnits="userSpaceOnUse">
<stop stop-color="#1A1A1A"/>
<stop offset="0.5" stop-color="#333333"/>
<stop offset="1" stop-color="#4D4D4D"/>
</linearGradient>
<linearGradient id="paint40_linear_2103_857" x1="95.3908" y1="155.816" x2="126.915" y2="83.0022" gradientUnits="userSpaceOnUse">
<stop stop-color="#1A1A1A"/>
<stop offset="0.5" stop-color="#333333"/>
<stop offset="1" stop-color="#4D4D4D"/>
</linearGradient>
<linearGradient id="paint41_linear_2103_857" x1="69.4853" y1="144.286" x2="101.101" y2="71.2601" gradientUnits="userSpaceOnUse">
<stop stop-color="#1A1A1A"/>
<stop offset="0.5" stop-color="#333333"/>
<stop offset="1" stop-color="#4D4D4D"/>
</linearGradient>
<linearGradient id="paint42_linear_2103_857" x1="147.984" y1="183.566" x2="114.055" y2="45.7894" gradientUnits="userSpaceOnUse">
<stop stop-color="#14F195"/>
<stop offset="1" stop-color="#9945FF"/>
</linearGradient>
<linearGradient id="paint43_linear_2103_857" x1="126.383" y1="188.736" x2="92.4531" y2="50.9592" gradientUnits="userSpaceOnUse">
<stop stop-color="#14F195"/>
<stop offset="1" stop-color="#9945FF"/>
</linearGradient>
<linearGradient id="paint44_linear_2103_857" x1="104.709" y1="193.927" x2="70.7743" y2="56.1378" gradientUnits="userSpaceOnUse">
<stop stop-color="#14F195"/>
<stop offset="1" stop-color="#9945FF"/>
</linearGradient>
<linearGradient id="paint45_linear_2103_857" x1="147.64" y1="182.179" x2="114.634" y2="48.1289" gradientUnits="userSpaceOnUse">
<stop stop-color="#9945FF"/>
<stop offset="1" stop-color="#14F195"/>
</linearGradient>
<linearGradient id="paint46_linear_2103_857" x1="125.927" y1="186.903" x2="92.9164" y2="52.8395" gradientUnits="userSpaceOnUse">
<stop stop-color="#9945FF"/>
<stop offset="1" stop-color="#14F195"/>
</linearGradient>
<linearGradient id="paint47_linear_2103_857" x1="104.146" y1="191.639" x2="71.1264" y2="57.5718" gradientUnits="userSpaceOnUse">
<stop stop-color="#9945FF"/>
<stop offset="1" stop-color="#14F195"/>
</linearGradient>
<clipPath id="clip0_2103_857">
<rect width="166.021" height="166.37" fill="white" transform="translate(543.823 437) rotate(64.2293)"/>
</clipPath>
<clipPath id="clip1_2103_857">
<rect width="477" height="478" fill="white" transform="translate(108.307 67) rotate(9.91519)"/>
</clipPath>
<clipPath id="clip2_2103_857">
<rect width="166.021" height="166.37" fill="white" transform="translate(9 157.356) rotate(-66.5903)"/>
</clipPath>
</defs>
</svg>
