<svg width="145" height="29" viewBox="0 0 145 29" fill="none" xmlns="http://www.w3.org/2000/svg">
<path d="M34.1489 29C33.8571 29 33.5836 28.9171 33.3283 28.7514C33.1094 28.5581 33 28.351 33 28.13C33 27.9919 33.0182 27.8676 33.0547 27.7571L45.9111 1.16C46.0205 0.856191 46.2394 0.59381 46.5676 0.372857C46.9323 0.124286 47.4247 0 48.0447 0H56.1415C56.7616 0 57.2357 0.124286 57.564 0.372857C57.9287 0.59381 58.1658 0.856191 58.2752 1.16L71.0769 27.7571C71.1498 27.8676 71.1863 27.9919 71.1863 28.13C71.1863 28.351 71.0586 28.5581 70.8033 28.7514C70.5845 28.9171 70.311 29 69.9827 29H63.2536C62.7065 29 62.2871 28.9033 61.9953 28.71C61.74 28.489 61.5759 28.2957 61.5029 28.13L59.3693 23.9043H44.7623L42.6833 28.13C42.6104 28.2957 42.4463 28.489 42.191 28.71C41.9357 28.9033 41.498 29 40.878 29H34.1489ZM47.0053 17.9386H57.181L52.0384 7.00143L47.0053 17.9386Z" fill="url(#paint0_linear_399_1089)"/>
<path d="M76.8661 29C76.4649 29 76.1367 28.9033 75.8814 28.71C75.6261 28.5167 75.4984 28.2681 75.4984 27.9643V1.03572C75.4984 0.731905 75.6261 0.483334 75.8814 0.290001C76.1367 0.096667 76.4649 0 76.8661 0H91.7467C96.4516 0 100.154 0.828571 102.852 2.48571C105.588 4.11524 106.956 6.43524 106.956 9.44571C106.956 11.4067 106.317 13.0638 105.041 14.4171C103.801 15.7705 102.16 16.7924 100.117 17.4829L107.667 27.6743C107.776 27.84 107.831 27.9919 107.831 28.13C107.831 28.351 107.703 28.5581 107.448 28.7514C107.229 28.9171 106.956 29 106.627 29H99.4059C98.7129 29 98.2023 28.8757 97.874 28.6271C97.5458 28.351 97.3087 28.1024 97.1628 27.8814L90.9261 18.7671H85.2912V27.9643C85.2912 28.2681 85.1635 28.5167 84.9082 28.71C84.6529 28.9033 84.3247 29 83.9235 29H76.8661ZM85.2912 12.9257H91.6373C93.3515 12.9257 94.628 12.6081 95.4669 11.9729C96.3422 11.3376 96.7799 10.4676 96.7799 9.36286C96.7799 8.28571 96.3605 7.41571 95.5216 6.75286C94.7192 6.09 93.4244 5.75857 91.6373 5.75857H85.2912V12.9257Z" fill="url(#paint1_linear_399_1089)"/>
<path d="M114.692 29C114.29 29 113.962 28.9033 113.707 28.71C113.452 28.5167 113.324 28.2681 113.324 27.9643V1.03572C113.324 0.731905 113.452 0.483334 113.707 0.290001C113.962 0.096667 114.29 0 114.692 0H120.491C121.111 0 121.548 0.110476 121.804 0.331429C122.096 0.524762 122.278 0.676666 122.351 0.787143L135.7 16.7371V1.03572C135.7 0.731905 135.827 0.483334 136.083 0.290001C136.338 0.096667 136.666 0 137.067 0H143.632C144.033 0 144.362 0.096667 144.617 0.290001C144.872 0.483334 145 0.731905 145 1.03572V27.9643C145 28.2405 144.872 28.489 144.617 28.71C144.362 28.9033 144.033 29 143.632 29H137.779C137.195 29 136.757 28.8895 136.466 28.6686C136.21 28.4476 136.046 28.2957 135.973 28.2129L122.624 12.8843V27.9643C122.624 28.2681 122.497 28.5167 122.241 28.71C121.986 28.9033 121.658 29 121.257 29H114.692Z" fill="url(#paint2_linear_399_1089)"/>
<path d="M0 25.5C0 23.567 1.567 22 3.5 22H26.5C28.433 22 30 23.567 30 25.5C30 27.433 28.433 29 26.5 29H3.5C1.567 29 0 27.433 0 25.5Z" fill="url(#paint3_linear_399_1089)"/>
<path d="M0 14.5C0 12.567 1.567 11 3.5 11H26.5C28.433 11 30 12.567 30 14.5C30 16.433 28.433 18 26.5 18H3.5C1.567 18 0 16.433 0 14.5Z" fill="url(#paint4_linear_399_1089)"/>
<path d="M0 3.5C0 1.567 1.567 0 3.5 0H26.5C28.433 0 30 1.567 30 3.5C30 5.433 28.433 7 26.5 7H3.5C1.567 7 0 5.433 0 3.5Z" fill="url(#paint5_linear_399_1089)"/>
<defs>
<linearGradient id="paint0_linear_399_1089" x1="145" y1="14.5" x2="0" y2="14.5" gradientUnits="userSpaceOnUse">
<stop stop-color="#05CDFE"/>
<stop offset="1" stop-color="#6B47FB"/>
</linearGradient>
<linearGradient id="paint1_linear_399_1089" x1="145" y1="14.5" x2="0" y2="14.5" gradientUnits="userSpaceOnUse">
<stop stop-color="#05CDFE"/>
<stop offset="1" stop-color="#6B47FB"/>
</linearGradient>
<linearGradient id="paint2_linear_399_1089" x1="145" y1="14.5" x2="0" y2="14.5" gradientUnits="userSpaceOnUse">
<stop stop-color="#05CDFE"/>
<stop offset="1" stop-color="#6B47FB"/>
</linearGradient>
<linearGradient id="paint3_linear_399_1089" x1="145" y1="14.5" x2="0" y2="14.5" gradientUnits="userSpaceOnUse">
<stop stop-color="#05CDFE"/>
<stop offset="1" stop-color="#6B47FB"/>
</linearGradient>
<linearGradient id="paint4_linear_399_1089" x1="145" y1="14.5" x2="0" y2="14.5" gradientUnits="userSpaceOnUse">
<stop stop-color="#05CDFE"/>
<stop offset="1" stop-color="#6B47FB"/>
</linearGradient>
<linearGradient id="paint5_linear_399_1089" x1="145" y1="14.5" x2="0" y2="14.5" gradientUnits="userSpaceOnUse">
<stop stop-color="#05CDFE"/>
<stop offset="1" stop-color="#6B47FB"/>
</linearGradient>
</defs>
</svg>
