<svg width="104" height="100" viewBox="0 0 104 100" fill="none" xmlns="http://www.w3.org/2000/svg">
<path d="M51.6471 99.9998C80.1712 99.9998 103.294 77.6135 103.294 49.9996C103.294 22.3855 80.1712 -0.000244141 51.6471 -0.000244141C23.1232 -0.000244141 0 22.3855 0 49.9996C0 77.6135 23.1232 99.9998 51.6471 99.9998Z" fill="black"/>
<path d="M65.9354 1.94318L38.8648 40.4907L36.8039 43.4136L34.7431 40.4907L26.9114 29.2475H16.9158L24.7578 40.4907L31.8166 50.5465L25.9325 58.8865L10.7537 80.5342C12.4796 82.6753 14.3819 84.6765 16.4419 86.5196L35.9382 58.8865L36.7833 57.6894L37.6181 58.8865L46.6758 71.8552H72.1285C74.984 71.8561 77.7617 70.9516 80.036 69.2793C82.3095 67.6073 83.9561 65.2602 84.7215 62.5965C85.4866 59.9334 85.3297 57.1002 84.2747 54.5313C83.2192 51.9621 81.3234 49.799 78.8779 48.3717C80.0686 46.4532 80.7113 44.2631 80.74 42.0253C80.769 39.7875 80.1834 37.5825 79.0426 35.6357C77.9019 33.6891 76.2477 32.0706 74.2484 30.9468C72.2498 29.8225 69.9782 29.2327 67.6665 29.2377H56.8158L74.0656 4.90609C71.4454 3.70131 68.7257 2.71023 65.9354 1.94318ZM67.6559 37.2684C68.9272 37.2684 70.146 37.7573 71.0443 38.6272C71.9429 39.497 72.4479 40.6768 72.4479 41.9071C72.4479 43.1376 71.9429 44.3174 71.0443 45.1876C70.146 46.0575 68.9272 46.5461 67.6559 46.5461H49.1079L46.243 50.6061L49.0254 54.5968H72.1179C73.3891 54.5968 74.6077 55.0857 75.5063 55.9555C76.4049 56.8254 76.9099 58.0052 76.9099 59.2355C76.9099 60.466 76.4049 61.6458 75.5063 62.516C74.6077 63.3859 73.3891 63.8744 72.1179 63.8744H51.0656L47.6031 58.8865L44.5838 54.5968L41.7916 50.6061L44.615 46.6157L48.881 40.5603L51.1481 37.3381H67.6356L67.6559 37.2684Z" fill="white"/>
</svg>
