<?xml version="1.0" encoding="utf-8"?><svg viewBox="0 0 49 36" xmlns="http://www.w3.org/2000/svg" xmlns:xlink="http://www.w3.org/1999/xlink"><style>:root>svg{display:none}:root>svg:target{display:block}</style><svg viewBox="0 0 49 16" id="arrow" xmlns="http://www.w3.org/2000/svg"><path d="M48.707 8.707a1 1 0 000-1.414L42.343.929a1 1 0 10-1.414 1.414L46.586 8l-5.657 5.657a1 1 0 001.414 1.414l6.364-6.364zM0 9h48V7H0v2z"/></svg><svg viewBox="0 0 16 16" id="arrow-modal" xmlns="http://www.w3.org/2000/svg"><path d="M5.826 12.365l4.36-4.37-4.372-4.36"/></svg><svg viewBox="0 0 12 9" id="arrow-select" xmlns="http://www.w3.org/2000/svg"><path d="M4.636 7.497a2 2 0 002.728 0l3.584-3.342c1.327-1.238.451-3.463-1.365-3.463H2.417C.6.692-.275 2.917 1.052 4.155l3.584 3.342z"/></svg><svg viewBox="0 0 24 24" id="close" xmlns="http://www.w3.org/2000/svg"><path d="M5.644 5.627L12 12m0 0l6.356 6.373M11.999 12l-6.372 6.355M11.999 12l6.373-6.355"/></svg><svg viewBox="0 0 20 20" id="facebook" xmlns="http://www.w3.org/2000/svg"><path fill-rule="evenodd" clip-rule="evenodd" d="M11.135 4H13V1h-1.865a4.147 4.147 0 00-4.142 4.142V7H5v3h2v9.938h3V10h2.021l.592-3H10V4.591A.6.6 0 0110.592 4h.543z"/></svg><svg viewBox="0 0 24 24" id="load" xmlns="http://www.w3.org/2000/svg"><path d="M12 3v3m0 12v3m9-9h-3M6 12H3m15.363-6.363l-2.12 2.121m-8.485 8.484l-2.121 2.121m12.726 0l-2.12-2.12M7.758 7.758L5.637 5.637"/></svg><svg viewBox="0 0 26 27" id="medium" xmlns="http://www.w3.org/2000/svg"><g clip-path="url(#ga)"><path d="M8.667 6.673a6.5 6.5 0 110 13 6.5 6.5 0 010-13zm9.75 1.083c1.625 0 2.708 2.426 2.708 5.417 0 2.99-1.083 5.417-2.708 5.417-1.625 0-2.708-2.426-2.708-5.417 0-2.991 1.083-5.417 2.708-5.417zm4.333.542c.412 0 .772.896.954 2.433l.05.48.021.255.033.535.01.28.013.586.003.306-.003.305-.012.586-.011.282-.033.534-.021.255-.05.48c-.182 1.538-.54 2.433-.954 2.433-.411 0-.771-.896-.953-2.433l-.05-.48-.021-.255-.033-.535a21.85 21.85 0 01-.01-.28l-.014-.587v-.61l.013-.587.011-.281.032-.534.022-.255.049-.48c.183-1.538.542-2.433.954-2.433z"/></g><defs><clipPath id="ga"><path transform="translate(0 .173)" d="M0 0h26v26H0z"/></clipPath></defs></svg><svg viewBox="0 0 22 22" id="reddit" xmlns="http://www.w3.org/2000/svg"><path d="M15.57 12.375a1.327 1.327 0 11-2.654 0 1.327 1.327 0 012.653 0zm-7.818 1.326a1.327 1.327 0 100-2.653 1.327 1.327 0 000 2.653zm.36 1.542a.688.688 0 00-.733 1.163l.316.2a6.187 6.187 0 006.602 0l.316-.2a.688.688 0 10-.733-1.164l-.316.2a4.813 4.813 0 01-5.135 0l-.317-.199z"/><path fill-rule="evenodd" clip-rule="evenodd" d="M18.296 1.604c-.8 0-1.5.44-1.868 1.09l-3.3-.678a.688.688 0 00-.77.405c-.377.886-.942 2.228-1.414 3.378-.167.407-.323.791-.454 1.123-1.876.075-3.614.565-5.036 1.36a2.81 2.81 0 10-3.449 4.053c-.122.44-.183.895-.184 1.366 0 1.964 1.108 3.678 2.773 4.874 1.667 1.198 3.933 1.917 6.406 1.917 2.472 0 4.739-.719 6.405-1.916 1.665-1.197 2.773-2.911 2.773-4.875 0-.47-.064-.927-.183-1.365a2.81 2.81 0 10-3.448-4.054c-1.309-.73-2.883-1.204-4.587-1.335l.257-.627c.383-.935.83-2.002 1.186-2.844l2.767.568a2.148 2.148 0 102.126-2.44zm-.771 2.147a.772.772 0 111.544 0 .772.772 0 01-1.544 0zM11 8.287c.14 0 .28.002.421.008a.925.925 0 01-.01.086l-.002.005.002-.01.027-.08c2.039.079 3.85.706 5.164 1.65 1.41 1.012 2.201 2.35 2.201 3.756 0 1.408-.793 2.746-2.2 3.759-1.408 1.01-3.386 1.657-5.603 1.657-2.218 0-4.196-.647-5.603-1.658-1.409-1.012-2.2-2.35-2.2-3.758 0-1.407.791-2.744 2.2-3.756C6.803 8.934 8.782 8.286 11 8.286M1.604 9.72a1.436 1.436 0 012.701-.676c-.732.577-1.34 1.258-1.773 2.02a1.44 1.44 0 01-.928-1.344zm17.863 1.344a6.99 6.99 0 00-1.773-2.02 1.436 1.436 0 111.773 2.02z"/></svg><svg viewBox="0 0 20 20" id="streamline" xmlns="http://www.w3.org/2000/svg"><g clip-path="url(#ia)" stroke-width="1.714" stroke-linecap="round" stroke-linejoin="round"><path d="M19.285 10A9.286 9.286 0 11.714 10m18.571 0A9.286 9.286 0 10.714 10m18.571 0H.714"/><path d="M13.57 10A16.029 16.029 0 0110 19.286 16.029 16.029 0 016.427 10 16.029 16.029 0 019.999.714 16.029 16.029 0 0113.571 10z"/></g><defs><clipPath id="ia"><path d="M0 0h20v20H0z"/></clipPath></defs></svg><svg viewBox="0 0 24 36" id="super" xmlns="http://www.w3.org/2000/svg"><path d="M12.576 12.434a.795.795 0 00-.32.182 1840.014 1840.014 0 01-5.075 4.711.34.34 0 00-.108.256c.005.186.109.314.31.384 1.394.482 2.744.956 4.052 1.423a.28.28 0 01.097.463 534.103 534.103 0 01-5.073 4.72c-.089.081-.208.074-.356-.02a.235.235 0 01-.094-.273l.718-2.126c.097-.284.004-.476-.279-.577L.212 19.364a.317.317 0 01-.111-.53L20.158.163a.592.592 0 01.337-.156c.275-.033.373.074.293.318l-4.052 12.54c-.09.28.002.47.28.566 2.283.81 4.446 1.585 6.49 2.327a.64.64 0 01.282.196.219.219 0 01-.02.299c-7.035 6.604-13.96 13.117-20.773 19.54-.18.171-.354.236-.522.197-.161-.038-.217-.135-.165-.29l1.947-6.043c.077-.239.215-.454.4-.626l12.07-11.225a.336.336 0 00.099-.31.328.328 0 00-.213-.245l-4.289-1.521a.393.393 0 01-.242-.492l.804-2.484a.249.249 0 00-.174-.32.251.251 0 00-.134.002z"/></svg><svg viewBox="0 0 26 27" id="telegram" xmlns="http://www.w3.org/2000/svg"><path d="M22.387 4.2L3.179 11.606c-1.31.527-1.303 1.258-.24 1.584l4.931 1.54 11.41-7.2c.54-.327 1.032-.15.627.209l-9.244 8.343h-.002.002l-.34 5.084c.498 0 .718-.229.998-.499l2.395-2.329 4.982 3.68c.919.506 1.579.246 1.807-.85l3.27-15.414c.336-1.342-.512-1.95-1.388-1.553z"/></svg><svg viewBox="0 0 26 27" id="twitter" xmlns="http://www.w3.org/2000/svg"><path d="M21.66 7.418a4.658 4.658 0 002.045-2.572 9.306 9.306 0 01-2.952 1.128 4.658 4.658 0 00-7.926 4.241 13.2 13.2 0 01-9.58-4.857 4.658 4.658 0 001.438 6.207 4.632 4.632 0 01-2.105-.583v.059c0 2.213 1.56 4.12 3.73 4.559a4.658 4.658 0 01-2.1.08 4.658 4.658 0 004.344 3.228 9.327 9.327 0 01-5.775 1.99 9.45 9.45 0 01-1.11-.064 13.159 13.159 0 007.127 2.089A13.137 13.137 0 0022.024 9.694c0-.201-.005-.402-.014-.601a9.446 9.446 0 002.32-2.407 9.294 9.294 0 01-2.67.732z"/></svg><svg viewBox="0 0 20 20" id="twitter2" xmlns="http://www.w3.org/2000/svg"><g clip-path="url(#ma)"><mask id="ma" maskUnits="userSpaceOnUse" x="0" y="0" width="20" height="20"><path d="M0 0h20v20H0V0z"/></mask><g mask="url(#ma)"><path d="M15.75.937h3.067l-6.7 7.677L20 19.063h-6.171L8.99 12.727l-5.528 6.336H.393l7.166-8.214L0 .939h6.329l4.365 5.79L15.75.937zm-1.079 16.286h1.7L5.4 2.682H3.577l11.094 14.541z"/></g></g><defs><clipPath id="ma"><path d="M0 0h20v20H0z"/></clipPath></defs></svg><svg viewBox="0 0 26 27" id="youtube" xmlns="http://www.w3.org/2000/svg"><path d="M10.834 16.423l5.622-3.25-5.622-3.25v6.5zM23.357 7.94c.14.51.238 1.192.303 2.059.076.866.109 1.614.109 2.264l.065.91c0 2.372-.174 4.117-.477 5.232-.27.975-.9 1.604-1.874 1.874-.51.141-1.441.239-2.871.304a72.138 72.138 0 01-3.89.108L13 20.756c-4.539 0-7.366-.173-8.482-.477-.975-.27-1.604-.899-1.874-1.874-.141-.509-.239-1.191-.304-2.058a26.064 26.064 0 01-.108-2.264l-.065-.91c0-2.373.173-4.117.477-5.233.27-.975.899-1.603 1.874-1.874.509-.14 1.44-.238 2.87-.303a72.208 72.208 0 013.89-.108L13 5.59c4.54 0 7.367.173 8.483.476.975.271 1.603.9 1.874 1.874z"/></svg></svg>